<svg width="87" height="86" viewBox="0 0 87 86" fill="none" xmlns="http://www.w3.org/2000/svg">
<path d="M75.9167 16.125H81.2917V69.875H70.5417V86L54.4167 69.875H32.9167L38.2917 64.5H56.6423L65.1667 73.0244V64.5H75.9167V16.125ZM32.9167 59.125L16.7917 75.25V59.125H0.666687V0H70.5417V59.125H32.9167ZM6.04169 53.75H22.1667V62.2744L30.6911 53.75H65.1667V5.375H6.04169V53.75ZM32.9167 48.375V43H38.2917V48.375H32.9167ZM35.6042 16.125C34.8483 16.125 34.1485 16.265 33.5046 16.5449C32.8607 16.8249 32.3008 17.2028 31.8249 17.6787C31.349 18.1546 30.9571 18.7285 30.6491 19.4004C30.3412 20.0723 30.2012 20.7721 30.2292 21.5H24.8542C24.8542 20.0163 25.1341 18.6305 25.694 17.3428C26.2539 16.055 27.0238 14.9072 28.0036 13.8994C28.9834 12.8916 30.1172 12.1217 31.405 11.5898C32.6927 11.0579 34.0925 10.778 35.6042 10.75C37.0879 10.75 38.4737 11.0299 39.7614 11.5898C41.0492 12.1497 42.197 12.9196 43.2048 13.8994C44.2126 14.8792 44.9824 16.013 45.5143 17.3008C46.0462 18.5885 46.3262 19.9883 46.3542 21.5C46.3542 22.7878 46.1582 23.9215 45.7663 24.9014C45.3744 25.8812 44.8565 26.791 44.2126 27.6309C43.5687 28.4707 42.8408 29.2686 42.029 30.0244C41.2171 30.7803 40.3913 31.5921 39.5515 32.46C38.9916 33.0199 38.6416 33.6077 38.5016 34.2236C38.3617 34.8395 38.2777 35.4974 38.2497 36.1973V36.8691C38.2497 37.0931 38.2637 37.3451 38.2917 37.625H32.9167V35.6094C32.9167 34.3216 33.1127 33.1878 33.5046 32.208C33.8965 31.2282 34.3864 30.3464 34.9743 29.5625C35.5622 28.7786 36.2201 28.0788 36.9479 27.4629C37.6758 26.847 38.3197 26.2171 38.8796 25.5732C39.4395 24.9294 39.9434 24.2995 40.3913 23.6836C40.8392 23.0677 41.0352 22.3398 40.9792 21.5C40.9792 20.7441 40.8392 20.0443 40.5593 19.4004C40.2793 18.7565 39.9014 18.1966 39.4255 17.7207C38.9496 17.2448 38.3757 16.8529 37.7038 16.5449C37.0319 16.237 36.3321 16.097 35.6042 16.125Z" fill="#FFC700"/>
</svg>
