<svg width="86" height="86" viewBox="0 0 86 86" fill="none" xmlns="http://www.w3.org/2000/svg">
<path d="M39.0071 3.07141H77.7194C80.6004 3.07141 82.9347 5.4057 82.9347 8.2867V49.923C82.9347 52.8101 80.6004 55.1444 77.7194 55.1444H46.0714M19.3439 24.5776C22.1958 24.5776 24.9308 23.4446 26.9474 21.4281C28.964 19.4115 30.0969 16.6764 30.0969 13.8245C30.0969 10.9726 28.964 8.2375 26.9474 6.22091C24.9308 4.20432 22.1958 3.07141 19.3439 3.07141C16.492 3.07141 13.7569 4.20432 11.7403 6.22091C9.7237 8.2375 8.59079 10.9726 8.59079 13.8245C8.59079 16.6764 9.7237 19.4115 11.7403 21.4281C13.7569 23.4446 16.492 24.5776 19.3439 24.5776Z" stroke="#FFC700" stroke-width="6.14286" stroke-linecap="round" stroke-linejoin="round"/>
<path d="M55.2857 33.9515C55.2857 30.4685 52.46 27.6428 48.977 27.6428H19.3439C15.0282 27.6428 10.8892 29.3572 7.83753 32.4089C4.78585 35.4606 3.07144 39.5995 3.07144 43.9153V58.3571H10.0436L12.3717 82.9285H26.316L31.6726 40.2664H48.977C52.46 40.2664 55.2857 37.4407 55.2857 33.9515Z" stroke="#FFC700" stroke-width="6.14286" stroke-linecap="round" stroke-linejoin="round"/>
</svg>
