<svg width="87" height="86" viewBox="0 0 87 86" fill="none" xmlns="http://www.w3.org/2000/svg">
<path d="M10.0083 0C7.44228 0 4.98141 1.07298 3.16699 2.98289C1.35258 4.8928 0.333252 7.48319 0.333252 10.1842V57.7105C0.333252 60.4115 1.35258 63.0019 3.16699 64.9118C4.98141 66.8218 7.44228 67.8947 10.0083 67.8947H32.5833V73.5526C32.5833 76.6758 30.1753 79.2105 27.2083 79.2105H25.0583C24.2029 79.2105 23.3826 79.5682 22.7778 80.2048C22.173 80.8415 21.8333 81.7049 21.8333 82.6053C21.8333 83.5056 22.173 84.3691 22.7778 85.0057C23.3826 85.6423 24.2029 86 25.0583 86H61.6083C62.4636 86 63.2839 85.6423 63.8887 85.0057C64.4935 84.3691 64.8333 83.5056 64.8333 82.6053C64.8333 81.7049 64.4935 80.8415 63.8887 80.2048C63.2839 79.5682 62.4636 79.2105 61.6083 79.2105H59.4583C56.4913 79.2105 54.0833 76.6758 54.0833 73.5526V67.8947H76.6583C79.2242 67.8947 81.6851 66.8218 83.4995 64.9118C85.3139 63.0019 86.3333 60.4115 86.3333 57.7105V10.1842C86.3333 7.48319 85.3139 4.8928 83.4995 2.98289C81.6851 1.07298 79.2242 0 76.6583 0H10.0083ZM47.6333 67.8947V73.5526C47.6333 75.5895 48.0977 77.5132 48.9233 79.2105H37.7433C38.5689 77.5132 39.0333 75.5895 39.0333 73.5526V67.8947H47.6333ZM6.78325 10.1842C6.78325 9.28387 7.12303 8.42041 7.72783 7.78377C8.33264 7.14713 9.15293 6.78947 10.0083 6.78947H76.6583C77.5136 6.78947 78.3339 7.14713 78.9387 7.78377C79.5435 8.42041 79.8833 9.28387 79.8833 10.1842V45.2632H6.78325V10.1842ZM6.78325 52.0526H79.8833V57.7105C79.8833 58.6109 79.5435 59.4743 78.9387 60.111C78.3339 60.7476 77.5136 61.1053 76.6583 61.1053H10.0083C9.15293 61.1053 8.33264 60.7476 7.72783 60.111C7.12303 59.4743 6.78325 58.6109 6.78325 57.7105V52.0526Z" fill="#FFC700"/>
</svg>
