<?xml version="1.0" standalone="no"?>
<!DOCTYPE svg PUBLIC "-//W3C//DTD SVG 20010904//EN"
 "http://www.w3.org/TR/2001/REC-SVG-20010904/DTD/svg10.dtd">
<svg version="1.0" xmlns="http://www.w3.org/2000/svg"
 width="1000.000000pt" height="1000.000000pt" viewBox="0 0 1000.000000 1000.000000"
 preserveAspectRatio="xMidYMid meet">
<metadata>
Created by potrace 1.14, written by Peter Selinger 2001-2017
</metadata>
<g transform="translate(0.000000,1000.000000) scale(0.100000,-0.100000)"
fill="#000000" stroke="none">
<path d="M4199 9996 c-2 -2 -26 -7 -54 -10 -44 -6 -81 -15 -135 -34 -8 -3 -18
-4 -22 -4 -5 1 -8 -3 -8 -10 0 -6 -3 -8 -7 -5 -7 8 -163 -73 -163 -85 0 -4 -4
-8 -10 -8 -20 0 -132 -105 -175 -165 -17 -22 -32 -42 -35 -45 -24 -23 -71
-112 -120 -225 -12 -26 -40 -116 -45 -141 -2 -10 -4 -19 -5 -19 -1 0 -3 -7 -5
-15 -13 -59 -17 -79 -21 -105 -2 -16 -7 -43 -10 -60 -10 -49 -13 -375 -4 -440
5 -33 11 -78 14 -100 13 -102 18 -131 23 -145 3 -8 7 -28 9 -44 3 -16 13 -59
24 -95 11 -36 21 -75 23 -86 1 -11 9 -30 15 -42 7 -13 11 -23 8 -23 -5 0 37
-125 61 -180 8 -19 18 -44 23 -55 12 -33 158 -326 186 -375 14 -25 32 -52 40
-61 8 -8 14 -19 14 -23 0 -4 11 -22 25 -40 14 -18 25 -38 25 -44 0 -7 4 -12 8
-12 4 0 16 -13 25 -30 10 -16 23 -35 30 -42 7 -7 24 -29 37 -48 34 -48 52 -70
73 -89 9 -8 17 -19 17 -22 0 -4 16 -25 36 -46 124 -130 168 -173 176 -173 5 0
6 -4 3 -10 -3 -5 -2 -10 3 -10 5 0 27 -16 48 -36 22 -20 66 -57 99 -82 33 -26
62 -50 63 -54 2 -4 10 -8 17 -8 8 0 19 -8 24 -17 6 -10 11 -14 11 -10 0 4 10
-1 22 -13 12 -11 28 -20 35 -20 7 0 13 -3 13 -8 0 -4 21 -18 48 -32 26 -13 49
-27 52 -30 6 -7 43 -22 49 -20 2 1 7 -2 10 -7 12 -16 119 -62 226 -97 86 -28
111 -35 165 -42 19 -3 46 -8 60 -13 14 -4 79 -6 145 -5 113 2 146 5 205 19 14
3 35 8 46 10 48 10 153 59 224 104 59 37 220 190 220 209 0 7 4 12 8 12 12 0
106 172 131 240 45 117 74 243 88 375 14 121 7 412 -12 505 -2 14 -7 41 -9 60
-5 42 -9 58 -37 175 -11 50 -22 95 -23 100 -14 61 -104 308 -147 403 -16 34
-29 64 -29 67 0 3 -10 22 -22 42 -19 36 -40 73 -99 183 -13 25 -26 47 -30 50
-3 3 -20 30 -38 60 -34 55 -181 258 -214 295 -116 130 -163 179 -233 245 -78
73 -133 120 -168 145 -16 11 -40 29 -55 41 -83 65 -352 217 -405 229 -6 1 -23
7 -38 13 -23 9 -131 44 -148 47 -3 0 -23 5 -45 9 -22 5 -51 11 -65 13 -35 6
-266 14 -271 9z"/>
<path d="M1600 8560 c-8 -5 -17 -7 -22 -4 -8 5 -121 -21 -153 -36 -11 -5 -42
-18 -68 -29 -108 -46 -256 -165 -315 -253 -13 -21 -29 -38 -33 -38 -5 0 -9 -4
-9 -9 0 -4 -20 -44 -44 -87 -40 -71 -123 -284 -110 -284 2 0 0 -8 -5 -18 -5
-10 -12 -38 -16 -62 -3 -25 -8 -58 -11 -75 -3 -16 -7 -47 -9 -68 -2 -21 -7
-42 -10 -47 -3 -6 -1 -10 5 -10 7 0 8 -6 2 -17 -8 -17 -7 -254 1 -318 3 -16 8
-57 11 -90 6 -51 23 -144 40 -221 17 -77 60 -231 67 -238 5 -6 9 -17 9 -27 0
-29 150 -390 170 -409 3 -3 19 -32 36 -65 48 -92 85 -158 100 -176 8 -8 14
-21 14 -27 0 -7 3 -12 8 -12 4 0 16 -17 27 -37 11 -20 25 -41 30 -47 6 -6 22
-27 35 -46 14 -19 30 -42 37 -50 6 -8 34 -42 60 -75 79 -98 284 -315 298 -315
4 0 53 -41 96 -82 11 -10 21 -18 24 -18 5 0 36 -24 59 -46 6 -6 16 -13 21 -15
6 -2 42 -25 80 -50 122 -81 216 -126 420 -202 23 -8 63 -19 90 -23 56 -9 64
-11 68 -14 7 -6 85 -12 177 -12 126 -1 176 5 277 35 50 15 163 65 173 76 3 3
17 12 31 19 15 8 38 25 52 38 14 13 29 24 33 24 16 0 142 145 181 209 50 80
127 257 137 311 3 14 5 25 6 25 3 0 16 59 25 111 11 67 15 97 20 159 8 87 8
250 0 274 -4 14 -2 21 7 21 8 0 9 3 3 8 -6 4 -11 18 -11 32 -1 14 -5 50 -9 80
-3 30 -8 69 -10 85 -2 17 -6 42 -9 58 -3 15 -8 39 -11 55 -38 189 -120 435
-213 635 -23 48 -42 91 -42 95 -1 4 -7 14 -14 22 -7 8 -16 24 -20 35 -10 27
-139 239 -148 243 -5 2 -8 8 -8 14 0 5 -6 16 -12 23 -28 31 -38 44 -38 50 0 6
-85 120 -100 135 -3 3 -27 32 -55 65 -67 81 -315 325 -330 325 -4 0 -17 10
-29 23 -12 12 -55 45 -96 72 -41 28 -76 53 -78 58 -2 4 -8 7 -14 7 -5 0 -22 8
-36 19 -15 10 -58 34 -97 54 -177 89 -258 117 -450 155 -62 13 -276 14 -295 2z"/>
<path d="M7535 8552 c-42 -3 -153 -31 -195 -49 -215 -90 -407 -290 -525 -548
-14 -31 -25 -60 -25 -65 0 -6 -4 -10 -8 -10 -5 0 -9 -6 -9 -12 0 -7 -12 -43
-26 -80 -14 -38 -24 -68 -21 -68 2 0 0 -8 -5 -18 -6 -11 -12 -30 -15 -43 -3
-13 -10 -42 -16 -64 -12 -49 -37 -189 -47 -270 -15 -115 -8 -519 11 -615 1 -8
6 -37 10 -65 5 -27 15 -79 23 -115 8 -36 17 -74 19 -84 3 -17 16 -63 30 -106
3 -8 5 -15 4 -15 -1 0 47 -130 59 -160 50 -122 180 -355 202 -363 5 -2 9 -8 9
-14 0 -6 14 -26 30 -45 17 -18 30 -38 30 -44 0 -6 5 -7 10 -4 6 3 10 2 10 -3
0 -15 82 -97 157 -157 55 -44 201 -130 222 -130 3 0 11 -3 16 -6 9 -6 57 -21
80 -25 6 -1 12 -3 15 -4 41 -16 208 -18 275 -3 33 7 71 16 84 19 70 15 224
111 306 190 126 121 251 319 316 502 11 31 23 64 26 72 3 8 7 20 8 25 2 6 10
35 19 65 8 30 18 70 21 89 3 19 8 38 11 43 3 4 7 22 9 40 2 18 8 62 14 98 5
36 13 90 16 120 9 71 9 347 1 430 -10 91 -16 142 -21 160 -2 8 -7 33 -10 55
-3 23 -8 52 -11 65 -3 14 -7 38 -10 53 -2 16 -6 33 -10 38 -3 5 -7 22 -10 37
-3 15 -12 50 -20 77 -20 66 -21 69 -23 78 0 4 -8 21 -16 37 -8 16 -16 33 -16
37 -4 27 -90 216 -101 221 -5 2 -8 9 -8 16 0 12 -102 174 -136 215 -89 109
-146 168 -204 211 -18 14 -46 35 -61 48 -15 12 -31 22 -37 22 -6 0 -12 4 -14
8 -5 13 -127 68 -190 86 -81 24 -179 35 -253 28z"/>
<path d="M5876 5362 c-2 -1 -28 -5 -57 -8 -30 -2 -65 -6 -79 -9 -14 -3 -41 -8
-60 -11 -19 -3 -48 -10 -65 -14 -16 -5 -56 -16 -87 -25 -32 -9 -63 -18 -70
-19 -7 -2 -20 -6 -28 -9 -8 -3 -44 -17 -80 -30 -66 -25 -150 -61 -184 -79 -10
-5 -33 -18 -50 -27 -17 -10 -62 -35 -101 -56 -83 -45 -182 -107 -250 -160
-125 -95 -294 -260 -367 -360 -4 -5 -18 -23 -31 -40 -51 -64 -168 -268 -169
-292 0 -4 -5 -17 -11 -28 -6 -11 -12 -26 -13 -32 -2 -11 -13 -44 -42 -123 -3
-8 -6 -19 -7 -25 -2 -5 -9 -30 -16 -55 -7 -25 -14 -49 -15 -55 0 -5 -4 -17 -7
-25 -7 -18 -73 -319 -81 -370 -3 -19 -8 -45 -10 -56 -2 -12 -7 -39 -10 -60 -3
-22 -8 -50 -11 -64 -12 -63 -16 -88 -20 -130 -3 -25 -7 -56 -9 -69 -3 -13 -8
-49 -11 -80 -4 -31 -8 -63 -10 -71 -3 -8 -7 -40 -10 -70 -3 -30 -8 -73 -11
-95 -5 -40 -12 -114 -19 -190 -1 -22 -4 -40 -5 -40 -1 0 -3 -22 -4 -50 -2 -27
-6 -84 -10 -125 -20 -227 -30 -398 -52 -885 -5 -115 -4 -444 2 -510 10 -121
13 -142 33 -224 5 -25 8 -49 5 -53 -3 -4 -1 -8 4 -8 5 0 14 -23 20 -50 10 -43
76 -194 92 -210 3 -3 21 -30 41 -60 126 -194 310 -327 523 -382 133 -34 356
-32 491 6 6 2 28 6 50 11 22 4 45 11 50 15 6 3 30 12 55 19 25 7 79 29 120 48
41 19 84 39 95 44 11 5 38 20 60 32 22 13 60 35 85 49 86 48 125 72 130 78 3
4 27 21 54 40 130 88 400 410 461 548 11 23 23 42 28 42 4 0 6 4 3 8 -6 10 70
120 134 193 58 66 137 142 200 194 25 20 52 42 60 49 43 34 226 149 305 191
50 26 106 58 125 70 45 28 224 114 270 130 3 1 12 5 20 8 42 18 190 63 222 68
4 0 31 7 59 14 29 8 56 12 61 9 4 -3 8 -2 8 3 0 11 60 12 360 10 96 -1 191 5
280 17 19 3 57 8 85 11 27 4 53 9 58 12 4 3 23 7 40 10 39 6 48 8 67 16 8 3
40 13 70 22 66 21 241 107 365 180 202 118 370 269 473 422 42 62 104 173 97
173 -2 0 4 20 15 45 11 25 21 57 24 73 2 15 5 27 6 27 7 0 14 91 14 190 0 93
-5 140 -23 210 -13 50 -27 94 -32 99 -5 6 -9 16 -9 24 0 18 -80 176 -91 180
-5 2 -9 9 -9 14 0 33 -178 226 -267 291 -24 17 -43 34 -43 37 0 4 -13 13 -30
20 -16 7 -30 16 -30 21 0 5 -6 9 -14 9 -8 0 -16 3 -18 8 -6 15 -290 192 -308
192 -6 0 -10 5 -10 10 0 6 -5 10 -10 10 -6 0 -64 30 -128 67 -188 107 -207
117 -211 114 -2 -1 -7 1 -10 6 -8 10 -21 18 -188 104 -76 39 -143 75 -150 81
-7 5 -18 11 -25 12 -7 1 -33 13 -58 26 -136 71 -490 241 -542 260 -21 8 -38
18 -38 22 0 4 -6 8 -13 8 -7 0 -32 9 -55 20 -61 30 -96 43 -104 42 -5 -1 -8 3
-8 8 0 6 -6 10 -14 10 -7 0 -38 11 -67 24 -74 33 -93 39 -101 38 -5 -1 -8 3
-8 8 0 6 -6 10 -13 10 -7 0 -58 18 -112 41 -116 47 -348 131 -400 143 -5 2
-19 6 -30 10 -48 18 -75 26 -155 45 -47 11 -107 23 -135 27 -51 7 -293 12
-299 6z"/>
<path d="M1157 4954 c-1 -1 -36 -5 -78 -8 -41 -3 -90 -11 -108 -17 -17 -6 -34
-9 -37 -6 -3 3 -17 -1 -31 -8 -15 -8 -30 -12 -35 -9 -4 3 -8 1 -8 -4 0 -5 -6
-9 -14 -9 -24 0 -147 -63 -201 -103 -81 -61 -155 -145 -193 -220 -9 -19 -20
-37 -23 -40 -6 -5 -36 -90 -45 -131 -19 -81 -22 -116 -19 -224 4 -131 11 -172
50 -310 10 -33 21 -64 26 -70 5 -5 9 -15 9 -22 0 -8 9 -33 20 -55 11 -23 20
-48 20 -55 0 -7 3 -13 8 -13 4 0 18 -25 32 -55 14 -30 28 -55 33 -55 4 0 7 -6
7 -13 0 -7 9 -23 20 -35 11 -12 20 -25 20 -30 0 -11 117 -168 164 -222 55 -62
230 -234 274 -270 24 -19 49 -39 56 -45 66 -56 178 -133 286 -197 77 -45 263
-139 284 -142 6 -1 22 -8 36 -16 14 -7 25 -12 25 -11 0 2 17 -4 39 -13 21 -9
46 -16 55 -16 9 0 21 -4 26 -8 13 -11 181 -54 211 -54 13 0 24 -3 24 -7 0 -3
10 -6 23 -7 12 0 58 -4 102 -9 134 -14 325 -6 383 16 12 5 26 8 30 7 9 -2 86
20 121 34 14 6 28 12 31 13 103 32 282 184 330 280 8 17 17 32 20 35 5 5 19
35 38 80 13 33 30 95 38 145 9 48 8 248 0 288 -3 15 -8 39 -11 55 -16 90 -95
311 -122 343 -7 8 -13 23 -13 31 0 9 -7 21 -15 28 -8 7 -15 17 -15 22 0 6 -18
37 -40 70 -22 33 -40 62 -40 65 0 6 -39 59 -110 148 -61 77 -216 236 -299 305
-29 25 -59 50 -65 55 -43 40 -290 205 -305 205 -5 0 -11 3 -13 8 -4 9 -242
126 -278 137 -14 4 -38 13 -55 20 -27 12 -128 46 -147 51 -5 1 -9 2 -10 4 -3
2 -30 8 -63 15 -11 2 -31 6 -45 9 -87 20 -105 23 -180 31 -60 7 -218 13 -223
9z"/>
</g>
</svg>
