<svg width="80" height="71" viewBox="0 0 80 71" fill="none" xmlns="http://www.w3.org/2000/svg">
<path fill-rule="evenodd" clip-rule="evenodd" d="M4.66667 0.675C4.66667 0.77125 4.98167 0.85 5.36667 0.85C5.87225 0.85 6.06667 0.922975 6.06667 1.1125C6.06667 1.2959 6.25147 1.375 6.67917 1.375C7.01605 1.375 7.29167 1.44517 7.29167 1.5311C7.29167 1.61685 7.48855 1.73655 7.72917 1.79692C7.9698 1.8573 8.16667 1.984 8.16667 2.07833C8.16667 2.17283 8.36355 2.25 8.60417 2.25C8.8448 2.25 9.04167 2.32717 9.04167 2.42167C9.04167 2.516 9.23855 2.6427 9.47917 2.70308C9.7198 2.76345 9.91667 2.88315 9.91667 2.9689C9.91667 3.05483 10.001 3.125 10.1041 3.125C10.2073 3.125 10.4014 3.22352 10.5356 3.34375C11.0645 3.818 11.3063 4 11.4082 4C11.5501 4 13.4167 5.87127 13.4167 6.01355C13.4167 6.1945 13.9009 6.625 14.1042 6.625C14.2073 6.625 14.2917 6.82187 14.2917 7.0625C14.2917 7.3348 14.3909 7.5 14.5542 7.5C14.6985 7.5 14.8167 7.61812 14.8167 7.7625C14.8167 7.90687 14.8954 8.025 14.9917 8.025C15.0879 8.025 15.1667 8.1825 15.1667 8.375C15.1667 8.5675 15.2391 8.725 15.3278 8.725C15.4164 8.725 15.5408 8.96125 15.6042 9.25C15.6675 9.53875 15.7919 9.775 15.8805 9.775C15.9692 9.775 16.0417 10.0441 16.0417 10.373C16.0417 10.7018 16.1255 10.9988 16.228 11.0329C16.3304 11.067 16.4613 11.4464 16.5191 11.876C16.6269 12.6803 17.0834 13.3873 17.2234 12.9672C17.2633 12.8476 17.4796 12.75 17.7042 12.75C17.9287 12.75 18.1453 12.6516 18.1854 12.5312C18.2377 12.3743 18.793 12.3125 20.1542 12.3125C21.5153 12.3125 22.0706 12.3743 22.1229 12.5312C22.163 12.6516 22.3074 12.75 22.4437 12.75C22.7751 12.75 22.7648 11.9732 22.4292 11.6375C22.2848 11.4931 22.1667 11.2907 22.1667 11.1874C22.1667 11.0843 22.0965 11 22.0106 11C21.9248 11 21.8051 10.8031 21.7447 10.5625C21.6844 10.3219 21.5577 10.125 21.4633 10.125C21.3688 10.125 21.2917 10.0406 21.2917 9.93757C21.2917 9.83432 21.1933 9.64025 21.0729 9.50602C20.5983 8.97682 20.4167 8.73515 20.4167 8.63312C20.4167 8.44745 17.2894 5.4 17.0988 5.4C16.9987 5.4 16.9167 5.28187 16.9167 5.1375C16.9167 4.97422 16.7515 4.875 16.4792 4.875C16.2069 4.875 16.0417 4.77577 16.0417 4.6125C16.0417 4.46812 15.9235 4.35 15.7792 4.35C15.6348 4.35 15.5167 4.27125 15.5167 4.175C15.5167 4.07875 15.3949 4 15.2458 4C15.0968 4 14.7925 3.80312 14.5696 3.5625C14.3464 3.32187 13.9959 3.125 13.7903 3.125C13.5848 3.125 13.4167 3.04975 13.4167 2.95787C13.4167 2.866 13.141 2.73912 12.8042 2.67595C12.4673 2.61277 12.1917 2.49097 12.1917 2.40557C12.1917 2.32 11.9554 2.25 11.6667 2.25C11.3779 2.25 11.1417 2.18 11.1417 2.09442C11.1417 2.00902 10.866 1.88723 10.5292 1.82405C10.1923 1.76088 9.91667 1.634 9.91667 1.54213C9.91667 1.45025 9.52292 1.375 9.04167 1.375C8.56042 1.375 8.16667 1.3001 8.16667 1.20875C8.16667 1.11722 7.69417 0.98895 7.11667 0.9235C6.53917 0.858225 6.06667 0.73625 6.06667 0.652425C6.06667 0.5686 5.75167 0.5 5.36667 0.5C4.98167 0.5 4.66667 0.57875 4.66667 0.675ZM0.291672 5.4C0.291672 7.35317 0.361147 8.9 0.448997 8.9C0.535447 8.9 0.661447 9.45125 0.729172 10.125C0.796897 10.7987 0.922897 11.35 1.00935 11.35C1.09597 11.35 1.16667 11.7437 1.16667 12.225C1.16667 12.7062 1.24455 13.1 1.33957 13.1C1.43477 13.1 1.56287 13.415 1.62447 13.8C1.68607 14.185 1.80507 14.5 1.88907 14.5C1.97307 14.5 2.04167 14.6969 2.04167 14.9375C2.04167 15.1781 2.11692 15.375 2.2088 15.375C2.30067 15.375 2.42755 15.6506 2.49072 15.9875C2.5539 16.3244 2.6757 16.6 2.7611 16.6C2.84667 16.6 2.91667 16.7969 2.91667 17.0375C2.91667 17.2781 2.98685 17.475 3.07277 17.475C3.15852 17.475 3.27822 17.6719 3.3386 17.9125C3.39897 18.1531 3.52567 18.35 3.62 18.35C3.7145 18.35 3.79167 18.4681 3.79167 18.6125C3.79167 18.7569 3.86185 18.875 3.94777 18.875C4.03352 18.875 4.15322 19.0719 4.2136 19.3125C4.27397 19.5531 4.40067 19.75 4.495 19.75C4.58967 19.75 4.66667 20.2605 4.66667 20.8875C4.66667 21.5131 4.7365 22.025 4.82172 22.025C4.90712 22.025 5.03015 22.3794 5.09507 22.8125C5.16 23.2456 5.28705 23.6 5.37735 23.6C5.46782 23.6 5.54167 23.7181 5.54167 23.8625C5.54167 24.0069 5.61185 24.125 5.69777 24.125C5.78352 24.125 5.90322 24.3219 5.9636 24.5625C6.02397 24.8031 6.15067 25 6.245 25C6.3395 25 6.41667 25.0843 6.41667 25.1874C6.41667 25.2907 6.5152 25.4848 6.63542 25.619C7.15482 26.1981 7.29167 26.396 7.29167 26.5676C7.29167 26.6679 7.4098 26.75 7.55417 26.75C7.69855 26.75 7.81667 26.8392 7.81667 26.9483C7.81667 27.0573 7.96297 27.2738 8.14165 27.4295C8.32032 27.5851 8.52262 27.8896 8.59087 28.1062C8.6593 28.3229 8.78862 28.5 8.8784 28.5C8.96817 28.5 9.04167 28.6181 9.04167 28.7625C9.04167 28.9069 9.10975 29.025 9.19287 29.025C9.276 29.025 9.38397 28.2606 9.4328 27.3263C9.48687 26.2943 9.59922 25.6017 9.7191 25.5618C9.82777 25.5255 9.91667 25.2161 9.91667 24.8742C9.91667 24.436 10.0456 24.1331 10.3542 23.8471C11.0405 23.211 10.9283 22.6491 9.91667 21.6586C9.43542 21.1873 9.04167 20.7188 9.04167 20.6175C9.04167 20.5161 8.8448 20.2508 8.60417 20.0279C8.36355 19.8048 8.16667 19.5691 8.16667 19.5038C8.16667 19.3907 7.99482 19.159 7.51042 18.619C7.3902 18.4848 7.29167 18.2907 7.29167 18.1874C7.29167 18.0843 7.2145 18 7.12 18C7.02567 18 6.89897 17.8031 6.8386 17.5625C6.77822 17.3219 6.65852 17.125 6.57277 17.125C6.48685 17.125 6.41667 17.0429 6.41667 16.9426C6.41667 16.771 6.27982 16.5731 5.76042 15.994C5.6402 15.8598 5.54167 15.5869 5.54167 15.3874C5.54167 15.1881 5.46292 15.025 5.36667 15.025C5.27042 15.025 5.19167 14.9069 5.19167 14.7625C5.19167 14.6181 5.07355 14.5 4.92917 14.5C4.7659 14.5 4.66667 14.3348 4.66667 14.0625C4.66667 13.8219 4.5965 13.625 4.51057 13.625C4.42482 13.625 4.30512 13.4281 4.24475 13.1875C4.18437 12.9469 4.05767 12.75 3.96335 12.75C3.86885 12.75 3.79167 12.4744 3.79167 12.1375C3.79167 11.8006 3.71922 11.525 3.6305 11.525C3.54195 11.525 3.41752 11.2887 3.35417 11C3.29082 10.7112 3.1664 10.475 3.07785 10.475C2.98912 10.475 2.91667 10.1994 2.91667 9.8625C2.91667 9.52562 2.84142 9.25 2.74955 9.25C2.65767 9.25 2.5308 8.97437 2.46762 8.6375C2.40445 8.30062 2.28265 8.025 2.19725 8.025C2.11167 8.025 2.04167 7.71 2.04167 7.325C2.04167 6.94 1.97027 6.625 1.88312 6.625C1.7958 6.625 1.67032 6.23125 1.60417 5.75C1.53802 5.26875 1.41255 4.875 1.32522 4.875C1.23807 4.875 1.16667 4.4025 1.16667 3.825C1.16667 3.2475 1.0965 2.775 1.01057 2.775C0.924822 2.775 0.805122 2.57812 0.744747 2.3375C0.684372 2.09687 0.557672 1.9 0.463347 1.9C0.356772 1.9 0.291672 3.2286 0.291672 5.4ZM6.94167 5.925C6.94167 6.02125 7.13295 6.1 7.36675 6.1C7.60037 6.1 7.90977 6.21812 8.05415 6.3625C8.19852 6.50687 8.47975 6.625 8.67925 6.625C8.8847 6.625 9.04167 6.73857 9.04167 6.8875C9.04167 7.03187 9.1598 7.15 9.30417 7.15C9.44855 7.15 9.56667 7.22875 9.56667 7.325C9.56667 7.42125 9.68392 7.5 9.82707 7.5C10.159 7.5 12.1917 9.54102 12.1917 9.8744C12.1917 10.0123 12.2704 10.125 12.3667 10.125C12.4629 10.125 12.5417 10.2071 12.5417 10.3073C12.5417 10.479 12.6785 10.6769 13.1979 11.256C13.3183 11.3902 13.4167 11.6566 13.4167 11.8479C13.4167 12.0393 13.4973 12.2227 13.5959 12.2556C13.6944 12.2884 13.8227 12.61 13.8811 12.9702C13.9676 13.5023 13.934 13.625 13.7021 13.625C13.5451 13.625 13.4167 13.7093 13.4167 13.8124C13.4167 14.0165 12.9858 14.5 12.8042 14.5C12.6225 14.5 12.1917 14.9835 12.1917 15.1876C12.1917 15.2906 12.0735 15.375 11.9292 15.375C11.7848 15.375 11.6667 15.4593 11.6667 15.5624C11.6667 15.6657 11.5683 15.8598 11.4479 15.994C10.9285 16.5731 10.7917 16.771 10.7917 16.9426C10.7917 17.0429 10.7215 17.125 10.6356 17.125C10.5498 17.125 10.4301 17.3219 10.3697 17.5625C10.3094 17.8031 10.1827 18 10.0883 18C9.99385 18 9.91667 18.1969 9.91667 18.4375C9.91667 18.6781 9.98685 18.875 10.0728 18.875C10.1585 18.875 10.2782 19.0719 10.3386 19.3125C10.399 19.5531 10.5257 19.75 10.62 19.75C10.7145 19.75 10.7917 19.8321 10.7917 19.9324C10.7917 20.104 10.9285 20.3019 11.4479 20.881C11.5683 21.0152 11.6667 21.2093 11.6667 21.3126C11.6667 21.4156 11.734 21.5 11.8163 21.5C11.8985 21.5 12.0137 20.93 12.0721 20.2335C12.1304 19.5368 12.2601 18.9397 12.36 18.9063C12.4599 18.8731 12.5417 18.6556 12.5417 18.423C12.5417 18.1904 12.6188 18 12.7133 18C12.8077 18 12.9344 17.8031 12.9947 17.5625C13.0551 17.3219 13.1748 17.125 13.2606 17.125C13.3465 17.125 13.4167 17.0406 13.4167 16.9376C13.4167 16.6952 13.8619 16.25 14.1042 16.25C14.2073 16.25 14.2917 16.1656 14.2917 16.0626C14.2917 15.8615 14.7215 15.375 14.8989 15.375C14.9581 15.375 15.1709 15.2217 15.3721 15.0341C15.681 14.7466 15.7242 14.5499 15.6495 13.7729C15.6008 13.2666 15.4724 12.8228 15.3639 12.7866C15.2554 12.7503 15.1667 12.4124 15.1667 12.0355C15.1667 11.6585 15.0895 11.35 14.995 11.35C14.9007 11.35 14.774 11.1531 14.7136 10.9125C14.6532 10.6719 14.5335 10.475 14.4478 10.475C14.3618 10.475 14.2917 10.3532 14.2917 10.2041C14.2917 10.0552 14.0948 9.75085 13.8542 9.5279C13.6135 9.30477 13.4167 9.06678 13.4167 8.9987C13.4167 8.83823 12.9534 8.375 12.793 8.375C12.7249 8.375 12.4869 8.17812 12.2638 7.9375C12.0408 7.69687 11.7722 7.5 11.6667 7.5C11.5611 7.5 11.2925 7.30312 11.0696 7.0625C10.8464 6.82187 10.4959 6.625 10.2903 6.625C10.0848 6.625 9.91667 6.5536 9.91667 6.46645C9.91667 6.37913 9.52292 6.25365 9.04167 6.1875C8.56042 6.12135 8.16667 5.99587 8.16667 5.90855C8.16667 5.8214 7.89105 5.75 7.55417 5.75C7.2173 5.75 6.94167 5.82875 6.94167 5.925ZM73.7917 5.91625C73.7917 6.00777 73.3192 6.13605 72.7417 6.2015C72.1642 6.26678 71.6917 6.38875 71.6917 6.47257C71.6917 6.5564 71.2585 6.625 70.7292 6.625C70.1998 6.625 69.7667 6.69885 69.7667 6.78933C69.7667 6.87963 69.4123 7.00668 68.9792 7.0716C68.546 7.13653 68.1917 7.25955 68.1917 7.34495C68.1917 7.43017 67.8767 7.5 67.4917 7.5C67.1067 7.5 66.7917 7.57525 66.7917 7.66713C66.7917 7.759 66.516 7.88588 66.1792 7.94905C65.8423 8.01223 65.5667 8.13402 65.5667 8.21942C65.5667 8.305 65.3304 8.375 65.0417 8.375C64.7529 8.375 64.5167 8.445 64.5167 8.53057C64.5167 8.61597 64.241 8.73777 63.9042 8.80095C63.5673 8.86412 63.2917 8.991 63.2917 9.08287C63.2917 9.17475 63.0948 9.25 62.8542 9.25C62.6135 9.25 62.4167 9.32017 62.4167 9.4061C62.4167 9.49185 62.2198 9.61155 61.9792 9.67193C61.7385 9.7323 61.5417 9.859 61.5417 9.95332C61.5417 10.0478 61.3448 10.125 61.1042 10.125C60.8635 10.125 60.6667 10.1952 60.6667 10.2811C60.6667 10.3668 60.4698 10.4866 60.2292 10.5469C59.9885 10.6073 59.7917 10.734 59.7917 10.8283C59.7917 10.9228 59.5948 11 59.3542 11C59.1135 11 58.9167 11.0702 58.9167 11.1561C58.9167 11.2418 58.7198 11.3616 58.4792 11.4219C58.2385 11.4823 58.0417 11.609 58.0417 11.7033C58.0417 11.7978 57.8448 11.875 57.6042 11.875C57.3635 11.875 57.1667 11.9452 57.1667 12.0311C57.1667 12.1168 56.9698 12.2366 56.7292 12.2969C56.4885 12.3573 56.2917 12.484 56.2917 12.5783C56.2917 12.6728 56.0948 12.75 55.8542 12.75C55.6135 12.75 55.4167 12.8202 55.4167 12.9061C55.4167 12.9918 55.2198 13.1116 54.9792 13.1719C54.7385 13.2323 54.5417 13.359 54.5417 13.4533C54.5417 13.5478 54.3448 13.625 54.1042 13.625C53.8635 13.625 53.6667 13.6952 53.6667 13.7811C53.6667 13.8668 53.4698 13.9866 53.2292 14.0469C52.9885 14.1073 52.7917 14.234 52.7917 14.3283C52.7917 14.4228 52.5948 14.5 52.3542 14.5C51.9832 14.5 51.9167 14.581 51.9167 15.0334C51.9167 15.3775 52.0719 15.7107 52.3542 15.9721C52.5948 16.1952 52.7917 16.4332 52.7917 16.5013C52.7917 16.5694 52.89 16.7348 53.0104 16.869C53.569 17.4918 53.6667 17.6591 53.6667 17.9926C53.6667 18.1892 53.7368 18.35 53.8228 18.35C53.9085 18.35 54.0282 18.5469 54.0886 18.7875C54.149 19.0281 54.2757 19.225 54.37 19.225C54.4645 19.225 54.5417 19.54 54.5417 19.925C54.5417 20.31 54.6169 20.625 54.7088 20.625C54.8007 20.625 54.9275 20.9006 54.9907 21.2375C55.0539 21.5744 55.1757 21.85 55.2611 21.85C55.3467 21.85 55.4167 22.165 55.4167 22.55C55.4167 22.935 55.4868 23.25 55.5728 23.25C55.6585 23.25 55.7782 23.4469 55.8386 23.6875C55.899 23.9281 56.0257 24.125 56.12 24.125C56.2145 24.125 56.2917 24.44 56.2917 24.825C56.2917 25.21 56.3652 25.525 56.4549 25.525C56.5447 25.525 56.6732 25.6986 56.7405 25.9105C56.9273 26.4994 57.3403 26.8604 57.5109 26.5843C57.5865 26.4619 58.0303 26.3188 58.4972 26.2661C59.4579 26.158 60.0178 25.7754 59.6013 25.5119C59.4653 25.4258 59.2894 25.3542 59.2105 25.3526C58.9814 25.3484 58.6235 24.9297 58.4905 24.5105C58.4232 24.2986 58.2947 24.125 58.2049 24.125C58.1152 24.125 58.0417 24.0406 58.0417 23.9376C58.0417 23.8343 57.9235 23.6318 57.7792 23.4875C57.6348 23.3431 57.5167 23.0337 57.5167 22.8001C57.5167 22.5663 57.4379 22.375 57.3417 22.375C57.2356 22.375 57.1667 21.6167 57.1667 20.45C57.1667 19.3912 57.2391 18.525 57.3278 18.525C57.4164 18.525 57.5408 18.2887 57.6042 18C57.6675 17.7112 57.7919 17.475 57.8805 17.475C57.9692 17.475 58.0417 17.3119 58.0417 17.1126C58.0417 16.9131 58.1402 16.6402 58.2604 16.506C58.7798 15.9269 58.9167 15.729 58.9167 15.5574C58.9167 15.4571 59.001 15.375 59.1041 15.375C59.3465 15.375 59.7917 14.9298 59.7917 14.6874C59.7917 14.5843 59.9885 14.5 60.2292 14.5C60.4698 14.5 60.6667 14.4228 60.6667 14.3283C60.6667 14.234 60.8635 14.1073 61.1042 14.0469C61.3448 13.9866 61.5417 13.8668 61.5417 13.7811C61.5417 13.6952 61.8108 13.625 62.1396 13.625C62.4685 13.625 62.7637 13.547 62.7959 13.4518C62.8279 13.3564 63.3464 13.227 63.9479 13.1642C64.5496 13.1016 65.0417 12.9826 65.0417 12.9002C65.0417 12.8176 66.026 12.75 67.2292 12.75C68.4323 12.75 69.4167 12.8174 69.4167 12.8996C69.4167 12.9819 69.9866 13.097 70.6831 13.1555C71.3798 13.2138 71.9769 13.3434 72.0103 13.4433C72.0961 13.7009 74.1026 13.67 74.4176 13.4062C74.5613 13.286 74.7886 13.0891 74.9227 12.9687C75.0569 12.8485 75.251 12.75 75.3542 12.75C75.4573 12.75 75.5417 12.6319 75.5417 12.4875C75.5417 12.3431 75.6188 12.225 75.7133 12.225C75.8077 12.225 75.9344 12.0281 75.9947 11.7875C76.0551 11.5469 76.1748 11.35 76.2606 11.35C76.3465 11.35 76.4167 10.9956 76.4167 10.5625C76.4167 10.1294 76.4954 9.775 76.5917 9.775C76.6982 9.775 76.7667 8.9875 76.7667 7.7625V5.75H75.2792C74.456 5.75 73.7917 5.8242 73.7917 5.91625ZM77.6417 8.1125C77.6417 8.25687 77.5629 8.375 77.4667 8.375C77.3704 8.375 77.2917 8.76875 77.2917 9.25C77.2917 9.73125 77.3631 10.125 77.4502 10.125C77.5375 10.125 77.663 10.5187 77.7292 11C77.7953 11.4812 77.9208 11.875 78.0081 11.875C78.0968 11.875 78.1667 13.2239 78.1667 14.9375C78.1667 16.8228 78.1007 18 77.995 18C77.9007 18 77.774 18.1969 77.7136 18.4375C77.6532 18.6781 77.5335 18.875 77.4478 18.875C77.3618 18.875 77.2917 19.0381 77.2917 19.2374C77.2917 19.6065 75.1938 21.85 74.8487 21.85C74.7486 21.85 74.6667 21.9681 74.6667 22.1125C74.6667 22.2569 74.5823 22.375 74.4792 22.375C74.2691 22.375 73.7917 22.8079 73.7917 22.9987C73.7917 23.0668 73.5948 23.3048 73.3542 23.5279C73.1135 23.7508 72.9167 24.0552 72.9167 24.2041C72.9167 24.3532 72.8465 24.475 72.7606 24.475C72.6748 24.475 72.5551 24.6719 72.4947 24.9125C72.4344 25.1531 72.3077 25.35 72.2133 25.35C72.1188 25.35 72.0417 25.4681 72.0417 25.6125C72.0417 25.7569 71.9664 25.875 71.8745 25.875C71.7827 25.875 71.6558 26.1506 71.5926 26.4875C71.5294 26.8244 71.4076 27.1 71.3222 27.1C71.2367 27.1 71.1667 27.415 71.1667 27.8C71.1667 28.185 71.0958 28.5 71.0092 28.5C70.9227 28.5 70.8242 29.5369 70.7904 30.8042C70.7468 32.4468 70.6663 33.1294 70.5104 33.1812C70.3902 33.2213 70.2917 33.3657 70.2917 33.502C70.2917 33.6385 70.1735 33.75 70.0292 33.75C69.8848 33.75 69.7667 33.8287 69.7667 33.925C69.7667 34.2486 70.1247 34.1039 70.6476 33.5691C71.1562 33.0488 71.1667 33.0008 71.1667 31.2066C71.1667 30.1991 71.2351 29.375 71.3189 29.375C71.4026 29.375 71.513 29.0035 71.5643 28.5495C71.6154 28.0954 71.7438 27.6952 71.8495 27.6598C71.9552 27.6247 72.0417 27.3268 72.0417 26.998C72.0417 26.669 72.1118 26.4 72.1978 26.4C72.2835 26.4 72.4032 26.2031 72.4636 25.9625C72.524 25.7219 72.6507 25.525 72.745 25.525C72.8395 25.525 72.9167 25.3638 72.9167 25.1666C72.9167 24.9695 73.1135 24.6258 73.3542 24.4029C73.5948 24.1798 73.7917 23.9418 73.7917 23.8737C73.7917 23.6829 74.2691 23.25 74.4792 23.25C74.5823 23.25 74.6667 23.1319 74.6667 22.9875C74.6667 22.8431 74.7848 22.725 74.9292 22.725C75.0735 22.725 75.1917 22.6462 75.1917 22.55C75.1917 22.4537 75.3063 22.375 75.4465 22.375C75.7769 22.375 77.572 20.5951 77.7237 20.1172C77.7878 19.9152 77.9136 19.75 78.0034 19.75C78.0932 19.75 78.1667 19.5531 78.1667 19.3125C78.1667 19.0719 78.2381 18.875 78.3252 18.875C78.4125 18.875 78.538 18.4812 78.6042 18C78.6703 17.5187 78.7958 17.125 78.8831 17.125C78.9703 17.125 79.0417 16.0225 79.0417 14.675C79.0417 13.3275 78.9743 12.225 78.8919 12.225C78.8094 12.225 78.689 11.654 78.6245 10.9562C78.5599 10.2585 78.4304 9.66125 78.3369 9.62922C78.2433 9.59702 78.1667 9.18367 78.1667 8.71047C78.1667 8.06227 78.1019 7.85 77.9042 7.85C77.7598 7.85 77.6417 7.96812 77.6417 8.1125ZM30.9167 11.1524C30.9167 11.2363 30.2079 11.3603 29.3417 11.428C28.4754 11.4958 27.7667 11.624 27.7667 11.7131C27.7667 11.8022 27.2942 11.875 26.7167 11.875C25.8999 11.875 25.6667 11.9333 25.6667 12.1375C25.6667 12.3209 25.4819 12.4 25.0542 12.4C24.7173 12.4 24.4417 12.4787 24.4417 12.575C24.4417 12.7965 25.6173 12.8069 25.6959 12.586C25.7279 12.4959 26.6402 12.3666 27.7229 12.2987C28.8058 12.2308 29.6917 12.1076 29.6917 12.0252C29.6917 11.9426 31.3454 11.875 33.3667 11.875C35.3879 11.875 37.0417 11.9436 37.0417 12.0274C37.0417 12.1114 37.9079 12.2362 38.9667 12.3048C40.0254 12.3734 40.8917 12.5017 40.8917 12.5897C40.8917 12.6779 41.4035 12.75 42.0292 12.75C42.6548 12.75 43.1667 12.8186 43.1667 12.9024C43.1667 12.9863 43.6392 13.1082 44.2167 13.1735C44.7942 13.2389 45.2667 13.3672 45.2667 13.4588C45.2667 13.5501 45.5817 13.625 45.9667 13.625C46.3517 13.625 46.6667 13.7037 46.6667 13.8C46.6667 13.8962 46.9817 13.975 47.3667 13.975C47.7517 13.975 48.0667 13.8962 48.0667 13.8C48.0667 13.7037 47.8304 13.625 47.5417 13.625C47.2529 13.625 47.0167 13.555 47.0167 13.4694C47.0167 13.384 46.741 13.2622 46.4042 13.1991C46.0673 13.1359 45.7917 13.009 45.7917 12.9171C45.7917 12.8253 45.4767 12.75 45.0917 12.75C44.7067 12.75 44.3917 12.6761 44.3917 12.5857C44.3917 12.4954 44.0373 12.3683 43.6042 12.3034C43.171 12.2385 42.8167 12.1155 42.8167 12.0301C42.8167 11.9448 42.3902 11.875 41.8687 11.875C41.3474 11.875 40.8946 11.7994 40.8624 11.707C40.8304 11.6146 40.1544 11.4853 39.3604 11.4193C38.5664 11.3535 37.9167 11.2322 37.9167 11.1498C37.9167 11.0674 36.3417 11 34.4167 11C32.4917 11 30.9167 11.0686 30.9167 11.1524ZM65.9604 14.0987C65.6475 14.1391 65.3917 14.2459 65.3917 14.336C65.3917 14.4263 65.0373 14.5 64.6042 14.5C64.171 14.5 63.8167 14.5779 63.8167 14.6729C63.8167 14.7681 63.5017 14.8962 63.1167 14.9578C62.7317 15.0194 62.4167 15.1384 62.4167 15.2224C62.4167 15.3064 62.2198 15.375 61.9792 15.375C61.7385 15.375 61.5417 15.4522 61.5417 15.5467C61.5417 15.641 61.3448 15.7677 61.1042 15.8281C60.8635 15.8885 60.6667 16.0082 60.6667 16.0939C60.6667 16.1798 60.5823 16.25 60.4792 16.25C60.2369 16.25 59.7917 16.6952 59.7917 16.9376C59.7917 17.0406 59.6735 17.125 59.5292 17.125C59.3848 17.125 59.2667 17.2431 59.2667 17.3875C59.2667 17.5319 59.1879 17.65 59.0917 17.65C58.9954 17.65 58.9167 17.8404 58.9167 18.073C58.9167 18.3056 58.8183 18.5287 58.6979 18.5689C58.5401 18.6216 58.4792 19.1942 58.4792 20.6252C58.4792 22.0562 58.5401 22.6287 58.6979 22.6812C58.8183 22.7213 58.9167 22.9065 58.9167 23.0927C58.9167 23.4792 60.0461 24.65 60.4192 24.65C60.5554 24.65 60.6667 24.7287 60.6667 24.825C60.6667 24.93 61.3667 25 62.4167 25H64.1667V25.4375C64.1667 25.6781 64.0823 25.875 63.9792 25.875C63.7691 25.875 63.2917 26.3079 63.2917 26.4987C63.2917 26.5668 63.0948 26.8048 62.8542 27.0279C62.6135 27.2508 62.4167 27.5195 62.4167 27.625C62.4167 27.7305 62.2198 27.9991 61.9792 28.2221C61.7385 28.4452 61.5417 28.717 61.5417 28.8264C61.5417 28.9356 61.4629 29.025 61.3667 29.025C61.2704 29.025 61.1917 29.1037 61.1917 29.2C61.1917 29.2973 61.6584 29.375 62.2417 29.375C62.8192 29.375 63.2917 29.3048 63.2917 29.2189C63.2917 29.1331 63.4885 29.0135 63.7292 28.9531C63.9698 28.8927 64.1667 28.766 64.1667 28.6717C64.1667 28.5772 64.3303 28.5 64.5301 28.5C64.9076 28.5 65.9167 27.6183 65.9167 27.2885C65.9167 27.1849 65.9954 27.1 66.0917 27.1C66.1879 27.1 66.2667 26.9031 66.2667 26.6625C66.2667 26.4219 66.1879 26.225 66.0917 26.225C65.9954 26.225 65.9167 25.956 65.9167 25.627C65.9167 25.2982 65.8302 25.0003 65.7245 24.9652C65.6188 24.9298 65.4904 24.5296 65.4393 24.0755C65.388 23.6215 65.2776 23.25 65.1939 23.25C65.1101 23.25 65.0417 22.6594 65.0417 21.9375C65.0417 21.1962 64.9669 20.625 64.87 20.625C64.7757 20.625 64.649 20.4281 64.5886 20.1875C64.5282 19.9469 64.4085 19.75 64.3228 19.75C64.2368 19.75 64.1667 19.5531 64.1667 19.3125C64.1667 19.0402 64.0674 18.875 63.9042 18.875C63.7598 18.875 63.6417 18.7569 63.6417 18.6125C63.6417 18.4681 63.5629 18.35 63.4667 18.35C63.3704 18.35 63.2917 18.1925 63.2917 18C63.2917 17.8075 63.3704 17.65 63.4667 17.65C63.5629 17.65 63.6417 17.5319 63.6417 17.3875C63.6417 17.2431 63.7598 17.125 63.9042 17.125C64.0485 17.125 64.1667 17.0478 64.1667 16.9533C64.1667 16.859 64.3635 16.7323 64.6042 16.6719C64.8448 16.6115 65.0417 16.4918 65.0417 16.4061C65.0417 16.3202 65.5535 16.25 66.1792 16.25C66.8048 16.25 67.3167 16.1816 67.3167 16.0978C67.3167 16.0141 67.6642 15.9063 68.0889 15.8585C68.9561 15.7607 69.7402 15.1254 69.8113 14.4634C69.8531 14.0718 69.8157 14.0621 68.1917 14.0438C67.2773 14.0336 66.2733 14.0583 65.9604 14.0987ZM48.4167 14.325C48.4167 14.4212 48.4954 14.5 48.5917 14.5C48.6879 14.5 48.7667 14.4212 48.7667 14.325C48.7667 14.2287 48.6879 14.15 48.5917 14.15C48.4954 14.15 48.4167 14.2287 48.4167 14.325ZM17.7917 23.498C17.7917 23.8268 17.8902 24.1418 18.0104 24.198C18.1854 24.2795 18.1854 24.3205 18.0104 24.402C17.89 24.4582 17.7917 24.8124 17.7917 25.1895C17.7917 25.5666 17.7129 25.875 17.6167 25.875C17.5204 25.875 17.4417 25.8025 17.4417 25.7138C17.4417 25.6253 17.2054 25.5008 16.9167 25.4375C16.6279 25.3741 16.3917 25.2497 16.3917 25.1612C16.3917 25.0725 15.9192 25 15.3417 25C14.7642 25 14.2917 25.0772 14.2917 25.1717C14.2917 25.266 14.0948 25.3927 13.8542 25.4531C13.6135 25.5135 13.4167 25.6331 13.4167 25.7189C13.4167 25.8048 13.3323 25.875 13.2292 25.875C12.9869 25.875 12.5417 26.3202 12.5417 26.5626C12.5417 26.6656 12.4715 26.75 12.3856 26.75C12.2996 26.75 12.1731 27.5375 12.1042 28.5C12.0352 29.4625 11.9087 30.25 11.8228 30.25C11.7368 30.25 11.6667 30.6437 11.6667 31.125C11.6667 31.6062 11.7353 32 11.8193 32C11.9033 32 12.0223 32.315 12.0839 32.7C12.1455 33.085 12.2736 33.4 12.3688 33.4C12.4638 33.4 12.5417 33.554 12.5417 33.7421C12.5417 33.9955 12.703 34.1144 13.164 34.2008C13.904 34.3398 15.052 34.1815 15.136 33.9292C15.1689 33.8307 15.3861 33.75 15.6187 33.75C15.8513 33.75 16.0417 33.6712 16.0417 33.575C16.0417 33.4787 16.2329 33.4 16.4667 33.4C16.7004 33.4 17.0098 33.2819 17.1541 33.1375C17.2985 32.9931 17.501 32.875 17.6042 32.875C17.7073 32.875 17.7917 32.7962 17.7917 32.7C17.7917 32.6037 17.903 32.525 18.0391 32.525C18.3744 32.525 19.5417 31.3719 19.5417 31.0407C19.5417 30.8945 19.6141 30.775 19.7028 30.775C19.7914 30.775 19.9158 30.5387 19.9792 30.25C20.0425 29.9612 20.1669 29.725 20.2555 29.725C20.3442 29.725 20.4167 29.5675 20.4167 29.375C20.4167 29.1825 20.3481 29.025 20.2641 29.025C20.1801 29.025 20.0611 28.71 19.9995 28.325C19.9379 27.94 19.8098 27.625 19.7146 27.625C19.6195 27.625 19.5417 27.1469 19.5417 26.5626C19.5417 25.8514 19.4549 25.4132 19.2792 25.2375C19.1348 25.0931 19.0167 24.7837 19.0167 24.5501C19.0167 24.3163 18.9379 24.125 18.8417 24.125C18.7454 24.125 18.6667 24.0069 18.6667 23.8625C18.6667 23.7181 18.5932 23.6 18.5034 23.6C18.4136 23.6 18.2902 23.4425 18.2292 23.25C18.0529 22.6949 17.7917 22.8431 17.7917 23.498ZM14.2917 27.1875C14.2917 27.4598 14.1924 27.625 14.0292 27.625C13.8848 27.625 13.7667 27.7431 13.7667 27.8875C13.7667 28.0319 13.6879 28.15 13.5917 28.15C13.4888 28.15 13.4167 28.7625 13.4167 29.6375C13.4167 30.4556 13.4868 31.125 13.5728 31.125C13.6585 31.125 13.7782 31.3219 13.8386 31.5625C13.899 31.8031 14.0257 32 14.12 32C14.2145 32 14.2917 32.0787 14.2917 32.175C14.2917 32.5201 13.9165 32.3386 13.2348 31.6636C12.5572 30.9929 12.5417 30.9497 12.5417 29.7387C12.5417 29.0574 12.6152 28.5 12.7049 28.5C12.7947 28.5 12.9232 28.3264 12.9905 28.1145C13.1335 27.6638 13.4872 27.275 13.7542 27.275C13.8573 27.275 13.9417 27.1569 13.9417 27.0125C13.9417 26.8681 14.0204 26.75 14.1167 26.75C14.2129 26.75 14.2917 26.9469 14.2917 27.1875ZM40.0167 26.9217C40.0167 27.016 39.8198 27.1427 39.5792 27.2031C39.3385 27.2635 39.1417 27.3831 39.1417 27.4689C39.1417 27.5548 39.0256 27.625 38.8837 27.625C38.5528 27.625 37.0417 29.1297 37.0417 29.4592C37.0417 29.6063 36.7897 29.7565 36.4292 29.824C36.0923 29.8872 35.8167 30.009 35.8167 30.0944C35.8167 30.18 35.5804 30.25 35.2917 30.25C35.0029 30.25 34.7667 30.3272 34.7667 30.4217C34.7667 30.516 34.5698 30.6427 34.3292 30.7031C34.0885 30.7635 33.8917 30.8831 33.8917 30.9689C33.8917 31.0548 33.7342 31.125 33.5417 31.125C33.3492 31.125 33.1917 31.1952 33.1917 31.2811C33.1917 31.3668 32.9948 31.4865 32.7542 31.5469C32.5135 31.6073 32.3167 31.734 32.3167 31.8283C32.3167 31.9228 32.1985 32 32.0542 32C31.9098 32 31.7917 32.1181 31.7917 32.2625C31.7917 32.4069 31.7129 32.525 31.6167 32.525C31.5204 32.525 31.4417 32.6736 31.4417 32.855C31.4417 33.1123 31.6158 33.2113 32.2292 33.3034C32.6623 33.3683 33.0167 33.4954 33.0167 33.5857C33.0167 33.6762 33.101 33.75 33.2041 33.75C33.3073 33.75 33.5128 33.8711 33.6607 34.019C33.8731 34.2314 34.1563 34.2634 35.0045 34.1709C35.5955 34.1063 36.1045 34.0321 36.1355 34.006C36.2769 33.886 35.5298 33.225 35.2528 33.225C35.0817 33.225 34.9417 33.1462 34.9417 33.05C34.9417 32.9537 34.8235 32.875 34.6792 32.875C34.1585 32.875 34.4308 32.5686 35.0393 32.4697C35.8181 32.3434 36.1667 32.4709 36.1667 32.882C36.1667 33.0598 36.3413 33.2565 36.5604 33.3258C36.7771 33.3941 37.0816 33.5964 37.2371 33.775C37.3929 33.9537 37.6094 34.1 37.7184 34.1C37.8274 34.1 37.9167 34.2181 37.9167 34.3625C37.9167 34.5069 38.001 34.625 38.1041 34.625C38.3465 34.625 38.7917 35.0702 38.7917 35.3126C38.7917 35.4156 38.876 35.5 38.9791 35.5C39.2215 35.5 39.6667 35.9452 39.6667 36.1876C39.6667 36.2906 39.8635 36.375 40.1042 36.375C40.3448 36.375 40.5417 36.4522 40.5417 36.5467C40.5417 36.641 40.7385 36.7677 40.9792 36.8281C41.2198 36.8884 41.4167 37.0081 41.4167 37.0939C41.4167 37.1798 41.6069 37.25 41.8396 37.25C42.0722 37.25 42.2953 37.3485 42.3354 37.4687C42.3874 37.6248 42.9255 37.6875 44.2167 37.6875C45.5078 37.6875 46.0459 37.6248 46.0979 37.4687C46.138 37.3485 46.3196 37.25 46.5016 37.25C46.8828 37.25 48.4167 35.7861 48.4167 35.4225C48.4167 35.2886 48.5101 35.1481 48.6246 35.1099C48.7581 35.0653 48.8323 34.6106 48.8323 33.8375C48.8323 33.0643 48.7581 32.6097 48.6246 32.5651C48.5101 32.5269 48.4167 32.3411 48.4167 32.1521C48.4167 31.9629 48.2198 31.6258 47.9792 31.4029C47.7385 31.1798 47.5417 30.9418 47.5417 30.8737C47.5417 30.6829 47.0643 30.25 46.8541 30.25C46.751 30.25 46.6667 30.1656 46.6667 30.0626C46.6667 29.8202 46.2215 29.375 45.9791 29.375C45.876 29.375 45.7917 29.2997 45.7917 29.2079C45.7917 29.116 45.516 28.9891 45.1792 28.926C44.8423 28.8628 44.5667 28.741 44.5667 28.6556C44.5667 28.57 43.976 28.5 43.2542 28.5C42.5323 28.5 41.9417 28.5725 41.9417 28.6612C41.9417 28.7497 41.7054 28.8741 41.4167 28.9375C41.1279 29.0008 40.8917 29.1253 40.8917 29.2138C40.8917 29.3025 40.7342 29.375 40.5417 29.375C40.3492 29.375 40.1917 29.4537 40.1917 29.55C40.1917 29.6462 40.0735 29.725 39.9292 29.725C39.7848 29.725 39.6667 29.8431 39.6667 29.9875C39.6667 30.1319 39.5823 30.25 39.4792 30.25C39.376 30.25 39.1791 30.3625 39.0417 30.5001C38.9042 30.6374 38.7917 30.8343 38.7917 30.9376C38.7917 31.0406 38.7073 31.125 38.6042 31.125C38.501 31.125 38.3069 31.2235 38.1727 31.3437C37.5936 31.8631 37.3957 32 37.224 32C37.1237 32 37.0417 32.0787 37.0417 32.175C37.0417 32.2712 36.8448 32.35 36.6042 32.35C36.3635 32.35 36.1667 32.2712 36.1667 32.175C36.1667 32.0787 36.3635 32 36.6042 32C36.8448 32 37.0417 31.9156 37.0417 31.8126C37.0417 31.5702 37.4869 31.125 37.7292 31.125C37.8323 31.125 37.9167 30.9281 37.9167 30.6875C37.9167 30.4469 38.001 30.25 38.1041 30.25C38.3088 30.25 38.7917 29.819 38.7917 29.6363C38.7917 29.4495 40.163 28.15 40.3598 28.15C40.4598 28.15 40.5417 28.0319 40.5417 27.8875C40.5417 27.7242 40.7069 27.625 40.9792 27.625C41.2198 27.625 41.4167 27.5478 41.4167 27.4533C41.4167 27.359 41.6135 27.2323 41.8542 27.1719C42.6635 26.9687 42.3008 26.75 41.1542 26.75C40.5271 26.75 40.0167 26.827 40.0167 26.9217ZM17.7568 27.4328C17.792 27.5385 18.0111 27.625 18.2437 27.625C18.4763 27.625 18.6667 27.7093 18.6667 27.8124C18.6667 27.9157 18.7928 28.1262 18.9472 28.2805C19.1665 28.4998 19.2127 28.8286 19.1584 29.7871C19.1162 30.5344 19.0067 31.0408 18.8779 31.0837C18.7617 31.1226 18.6667 31.2657 18.6667 31.402C18.6667 31.5385 18.5485 31.65 18.4042 31.65C18.2598 31.65 18.1417 31.7287 18.1417 31.825C18.1417 31.9212 17.9448 32 17.7042 32C17.4635 32 17.2667 32.0787 17.2667 32.175C17.2667 32.2712 17.0698 32.35 16.8292 32.35C16.5885 32.35 16.3917 32.2712 16.3917 32.175C16.3917 32.0787 16.116 32 15.7792 32C15.4423 32 15.1667 31.9156 15.1667 31.8126C15.1667 31.5702 14.7215 31.125 14.4791 31.125C14.3625 31.125 14.2917 30.6292 14.2917 29.8125C14.2917 29.0712 14.3664 28.5 14.4633 28.5C14.5577 28.5 14.6844 28.3031 14.7447 28.0625C14.8135 27.7888 14.9785 27.625 15.1856 27.625C15.3677 27.625 15.5167 27.552 15.5167 27.4628C15.5167 27.3737 15.6544 27.2607 15.8229 27.2118C16.319 27.0676 17.6872 27.2241 17.7568 27.4328ZM69.4167 27.45C69.4167 27.5462 69.2985 27.625 69.1542 27.625C69.0098 27.625 68.8917 27.7022 68.8917 27.7967C68.8917 27.891 68.6948 28.0177 68.4542 28.0781C68.2135 28.1385 68.0167 28.2581 68.0167 28.3439C68.0167 28.4298 67.741 28.5 67.4042 28.5C67.0673 28.5 66.7917 28.5787 66.7917 28.675C66.7917 28.7712 66.8704 28.85 66.9667 28.85C67.0629 28.85 67.1417 28.9681 67.1417 29.1125C67.1417 29.2569 67.2598 29.375 67.4042 29.375C67.5485 29.375 67.6667 29.4931 67.6667 29.6375C67.6667 29.7819 67.7438 29.9 67.8383 29.9C67.9327 29.9 68.0594 30.0969 68.1197 30.3375C68.1801 30.5781 68.2998 30.775 68.3856 30.775C68.4715 30.775 68.5417 31.2188 68.5417 31.7611C68.5417 32.5883 68.4711 32.8127 68.1042 33.1529C67.572 33.646 67.559 33.75 68.0301 33.75C68.23 33.75 68.6237 33.5199 68.9051 33.2385C69.4137 32.7299 69.4167 32.7145 69.4167 30.628C69.4167 29.4177 69.4891 28.5045 69.5876 28.4708C69.6818 28.4387 69.8097 28.1565 69.872 27.8437C69.9627 27.3889 69.9285 27.275 69.701 27.275C69.5446 27.275 69.4167 27.3537 69.4167 27.45ZM20.4167 27.8875C20.4167 28.0319 20.4954 28.15 20.5917 28.15C20.6916 28.15 20.7667 28.675 20.7667 29.375C20.7667 30.075 20.6916 30.6 20.5917 30.6C20.4954 30.6 20.4167 30.7181 20.4167 30.8625C20.4167 31.2781 21.1212 31.1712 21.5696 30.6875C21.7925 30.4469 22.0554 30.25 22.1537 30.25C22.328 30.25 23.9167 28.7476 23.9167 28.5829C23.9167 28.5373 23.5229 28.5 23.0417 28.5C22.5604 28.5 22.1667 28.4247 22.1667 28.3329C22.1667 28.241 21.891 28.1141 21.5542 28.051C21.2173 27.9878 20.9417 27.866 20.9417 27.7806C20.9417 27.695 20.8235 27.625 20.6792 27.625C20.5348 27.625 20.4167 27.7431 20.4167 27.8875ZM15.5886 28.9375C15.5282 29.1781 15.4085 29.375 15.3228 29.375C15.2368 29.375 15.1667 29.6506 15.1667 29.9875C15.1667 30.3244 15.2454 30.6 15.3417 30.6C15.4379 30.6 15.5167 30.7181 15.5167 30.8625C15.5167 31.0069 15.6348 31.125 15.7792 31.125C15.9235 31.125 16.0417 31.2037 16.0417 31.3C16.0417 31.3962 16.4354 31.475 16.9167 31.475C17.3979 31.475 17.7917 31.3962 17.7917 31.3C17.7917 31.2037 17.9098 31.125 18.0542 31.125C18.1985 31.125 18.3167 31.0069 18.3167 30.8625C18.3167 30.7181 18.3954 30.6 18.4917 30.6C18.5879 30.6 18.6667 30.285 18.6667 29.9C18.6667 28.832 18.2318 28.5 16.8325 28.5C15.7687 28.5 15.6915 28.5271 15.5886 28.9375ZM41.4167 30.075C41.4167 30.1712 41.3379 30.25 41.2417 30.25C41.1454 30.25 41.0667 30.1712 41.0667 30.075C41.0667 29.9787 41.1454 29.9 41.2417 29.9C41.3379 29.9 41.4167 29.9787 41.4167 30.075ZM40.8917 30.425C40.8917 30.5212 40.8129 30.6 40.7167 30.6C40.6204 30.6 40.5417 30.7181 40.5417 30.8625C40.5417 31.0069 40.4645 31.125 40.37 31.125C40.2757 31.125 40.149 31.3219 40.0886 31.5625C40.0282 31.8031 39.9085 32 39.8228 32C39.7368 32 39.6667 32.1969 39.6667 32.4375C39.6667 32.6781 39.5926 32.875 39.5022 32.875C39.4119 32.875 39.3133 33.1643 39.2834 33.5178C39.2223 34.2407 38.963 34.4215 38.5621 34.0204C38.4133 33.8716 38.2073 33.75 38.1041 33.75C38.001 33.75 37.9167 33.4744 37.9167 33.1375C37.9167 32.8006 37.9954 32.525 38.0917 32.525C38.1879 32.525 38.2667 32.4069 38.2667 32.2625C38.2667 32.1181 38.3848 32 38.5292 32C38.6924 32 38.7917 31.8348 38.7917 31.5625C38.7917 31.3219 38.8737 31.125 38.974 31.125C39.1529 31.125 39.4754 30.8971 39.8938 30.4754C40.1488 30.2183 40.8917 30.1807 40.8917 30.425ZM44.9167 31.3124C44.9167 31.5548 45.3619 32 45.6042 32C45.7073 32 45.7917 32.2756 45.7917 32.6125C45.7917 32.9494 45.8704 33.225 45.9667 33.225C46.0629 33.225 46.1417 33.4612 46.1417 33.75C46.1417 34.0387 46.0629 34.275 45.9667 34.275C45.8704 34.275 45.7917 34.5506 45.7917 34.8875C45.7917 35.2244 45.7096 35.5 45.6093 35.5C45.4376 35.5 45.2397 35.6368 44.6606 36.1562C44.3661 36.4203 41.9417 36.4593 41.9417 36.2C41.9417 36.1037 41.8235 36.025 41.6792 36.025C41.5348 36.025 41.4167 35.9069 41.4167 35.7625C41.4167 35.6181 41.2985 35.5 41.1542 35.5C41.0098 35.5 40.8917 35.3819 40.8917 35.2375C40.8917 35.0931 40.8129 34.975 40.7167 34.975C40.6167 34.975 40.5417 34.45 40.5417 33.75C40.5417 33.05 40.6167 32.525 40.7167 32.525C40.8129 32.525 40.8917 32.4069 40.8917 32.2625C40.8917 32.1181 41.0098 32 41.1542 32C41.2985 32 41.4167 31.9179 41.4167 31.8176C41.4167 31.3007 41.883 31.1381 43.3854 31.1316C44.3617 31.1274 44.9167 31.1929 44.9167 31.3124ZM41.7229 32.3645C41.5546 32.549 41.4167 32.8575 41.4167 33.05C41.4167 33.2425 41.3379 33.4 41.2417 33.4C41.1454 33.4 41.0667 33.5575 41.0667 33.75C41.0667 33.9425 41.1454 34.1 41.2417 34.1C41.3379 34.1 41.4167 34.2953 41.4167 34.5342C41.4167 34.8513 41.5346 34.9979 41.8542 35.0781C42.0948 35.1385 42.2917 35.2581 42.2917 35.3439C42.2917 35.4298 42.5673 35.5 42.9042 35.5C43.241 35.5 43.5167 35.4212 43.5167 35.325C43.5167 35.2287 43.6348 35.15 43.7792 35.15C43.9235 35.15 44.0417 35.0385 44.0417 34.902C44.0417 34.7657 44.1223 34.6273 44.2209 34.5944C44.553 34.4838 44.6279 33.3111 44.3222 33.0054C44.1678 32.8512 44.0417 32.6744 44.0417 32.6125C44.0417 31.9723 42.2554 31.7812 41.7229 32.3645ZM30.0417 33.9086C30.0417 33.9959 29.6479 34.1213 29.1667 34.1875C27.7093 34.3879 28.1835 34.625 30.0417 34.625C31.0042 34.625 31.7917 34.6952 31.7917 34.7811C31.7917 34.8668 31.9885 34.9865 32.2292 35.0469C32.4698 35.1073 32.6667 35.234 32.6667 35.3283C32.6667 35.4228 32.8635 35.5 33.1042 35.5C33.3448 35.5 33.5417 35.5843 33.5417 35.6874C33.5417 35.7907 33.6542 35.9875 33.7917 36.1249C33.9291 36.2625 34.126 36.375 34.2292 36.375C34.3323 36.375 34.4167 36.5719 34.4167 36.8125C34.4167 37.0531 34.4938 37.25 34.5883 37.25C34.6827 37.25 34.8094 37.4469 34.8697 37.6875C34.9301 37.9281 35.0498 38.125 35.1356 38.125C35.2215 38.125 35.2917 38.5121 35.2917 38.9855C35.2917 39.5026 35.379 39.8865 35.5104 39.948C35.6854 40.0295 35.6854 40.0705 35.5104 40.152C35.375 40.2154 35.2917 40.6149 35.2917 41.202C35.2917 42.1889 35.5235 42.4694 35.7136 41.7125C35.774 41.4719 35.9007 41.275 35.995 41.275C36.0946 41.275 36.1667 40.613 36.1667 39.7C36.1667 38.7667 36.0954 38.125 35.9917 38.125C35.8954 38.125 35.8167 37.9337 35.8167 37.6999C35.8167 37.4663 35.6985 37.1569 35.5542 37.0125C35.4098 36.8682 35.2917 36.6657 35.2917 36.5624C35.2917 36.4594 35.2182 36.375 35.1284 36.375C35.0386 36.375 34.9102 36.2014 34.8428 35.9895C34.6877 35.5007 34.416 35.2289 33.9272 35.0739C33.7153 35.0065 33.5417 34.878 33.5417 34.7883C33.5417 34.6985 33.3513 34.625 33.1187 34.625C32.8861 34.625 32.667 34.5385 32.6318 34.4328C32.5965 34.3271 32.1963 34.1987 31.7421 34.1476C31.2882 34.0963 30.9167 33.9859 30.9167 33.9022C30.9167 33.8184 30.7198 33.75 30.4792 33.75C30.2385 33.75 30.0417 33.8214 30.0417 33.9086ZM69.0667 34.45C69.0667 34.5462 69.1454 34.625 69.2417 34.625C69.3379 34.625 69.4167 34.5462 69.4167 34.45C69.4167 34.3537 69.3379 34.275 69.2417 34.275C69.1454 34.275 69.0667 34.3537 69.0667 34.45ZM62.9417 34.7811C62.9417 34.8668 62.7448 34.9865 62.5042 35.0469C62.2635 35.1073 62.0667 35.234 62.0667 35.3283C62.0667 35.4228 61.9485 35.5 61.8042 35.5C61.6598 35.5 61.5417 35.5843 61.5417 35.6874C61.5417 35.7907 61.4433 35.9847 61.3229 36.119C60.8035 36.698 60.6667 36.896 60.6667 37.0677C60.6667 37.1679 60.5965 37.25 60.5106 37.25C60.4248 37.25 60.3051 37.4469 60.2447 37.6875C60.1844 37.9281 60.0577 38.125 59.9633 38.125C59.8688 38.125 59.7917 38.3219 59.7917 38.5625C59.7917 38.8031 59.7145 39 59.62 39C59.5257 39 59.399 39.1969 59.3386 39.4375C59.2782 39.6781 59.1585 39.875 59.0728 39.875C58.9868 39.875 58.9167 40.0719 58.9167 40.3125C58.9167 40.5531 58.8395 40.75 58.745 40.75C58.6507 40.75 58.524 40.9469 58.4636 41.1875C58.4032 41.4281 58.2835 41.625 58.1978 41.625C58.1118 41.625 58.0417 41.8219 58.0417 42.0625C58.0417 42.3031 57.9715 42.5 57.8856 42.5C57.7998 42.5 57.6801 42.6969 57.6197 42.9375C57.5594 43.1781 57.4327 43.375 57.3383 43.375C57.2438 43.375 57.1667 43.5719 57.1667 43.8125C57.1667 44.0531 57.0965 44.25 57.0106 44.25C56.9248 44.25 56.8051 44.4469 56.7447 44.6875C56.6844 44.9281 56.5577 45.125 56.4633 45.125C56.3688 45.125 56.2917 45.2094 56.2917 45.3124C56.2917 45.4869 56.1877 45.6314 55.6438 46.2126C55.2616 46.6211 54.909 46.875 54.724 46.875C54.6237 46.875 54.5417 46.9931 54.5417 47.1375C54.5417 47.2819 54.4235 47.4 54.2792 47.4C54.1348 47.4 54.0167 47.4787 54.0167 47.575C54.0167 47.6712 53.8592 47.75 53.6667 47.75C53.4742 47.75 53.3167 47.8287 53.3167 47.925C53.3167 48.0212 53.5923 48.1 53.9292 48.1C54.266 48.1 54.5417 48.0212 54.5417 47.925C54.5417 47.8287 54.7385 47.75 54.9792 47.75C55.2515 47.75 55.4167 47.6508 55.4167 47.4875C55.4167 47.3431 55.5348 47.225 55.6792 47.225C55.8235 47.225 55.9417 47.1462 55.9417 47.05C55.9417 46.9537 56.0612 46.875 56.2073 46.875C56.5386 46.875 57.6917 45.7077 57.6917 45.3724C57.6917 45.2363 57.7704 45.125 57.8667 45.125C57.9629 45.125 58.0417 45.0406 58.0417 44.9376C58.0417 44.8343 58.1598 44.6318 58.3042 44.4875C58.4485 44.3431 58.5667 44.0337 58.5667 43.8001C58.5667 43.5663 58.6454 43.375 58.7417 43.375C58.8379 43.375 58.9167 43.1781 58.9167 42.9375C58.9167 42.6969 58.9954 42.5 59.0917 42.5C59.1879 42.5 59.2667 42.3087 59.2667 42.0749C59.2667 41.8413 59.3848 41.5319 59.5292 41.3875C59.6735 41.2432 59.7917 40.9619 59.7917 40.7624C59.7917 40.5631 59.8618 40.4 59.9478 40.4C60.0335 40.4 60.1532 40.2031 60.2136 39.9625C60.274 39.7219 60.4007 39.525 60.495 39.525C60.5895 39.525 60.6667 39.3281 60.6667 39.0875C60.6667 38.8469 60.7454 38.65 60.8417 38.65C60.9379 38.65 61.0167 38.5319 61.0167 38.3875C61.0167 38.2431 61.1348 38.125 61.2792 38.125C61.4424 38.125 61.5417 37.9598 61.5417 37.6875C61.5417 37.4152 61.6409 37.25 61.8042 37.25C61.9485 37.25 62.0667 37.1681 62.0667 37.0682C62.0667 36.7348 63.4339 35.5 63.803 35.5C64.003 35.5 64.1667 35.4221 64.1667 35.3271C64.1667 35.2319 64.4817 35.1038 64.8667 35.0422C66.0092 34.8595 65.6648 34.625 64.2542 34.625C63.5323 34.625 62.9417 34.6952 62.9417 34.7811ZM17.7917 35.6561C17.7917 35.7418 17.5948 35.8615 17.3542 35.9219C17.1135 35.9823 16.9167 36.109 16.9167 36.2033C16.9167 36.2978 16.8323 36.375 16.7292 36.375C16.626 36.375 16.4319 36.4735 16.2977 36.5937C15.7186 37.1131 15.5207 37.25 15.349 37.25C15.2487 37.25 15.1667 37.4131 15.1667 37.6124C15.1667 37.8119 15.0485 38.0932 14.9042 38.2375C14.4966 38.6449 14.5825 39.4499 15.087 39.9546C15.5968 40.4642 15.9052 40.5115 16.2791 40.1375C16.4235 39.9931 16.626 39.875 16.7292 39.875C17.0248 39.875 16.9529 39.717 16.4422 39.2436C16.0495 38.8798 16.0119 38.776 16.2235 38.6421C16.5282 38.4493 16.626 38.4416 16.9898 38.5812C17.2971 38.6992 17.3897 39.875 17.0917 39.875C16.9954 39.875 16.9167 39.9594 16.9167 40.0624C16.9167 40.4362 16.4032 40.75 15.7916 40.75H15.1667V42.0625C15.1667 43.1125 15.2192 43.375 15.4292 43.375C15.5735 43.375 15.6917 43.4569 15.6917 43.5568C15.6917 43.8902 17.0589 45.125 17.428 45.125C17.628 45.125 17.7917 45.2037 17.7917 45.3C17.7917 45.3962 18.0673 45.475 18.4042 45.475C18.741 45.475 19.0167 45.3962 19.0167 45.3C19.0167 45.2037 18.9379 45.125 18.8417 45.125C18.743 45.125 18.6667 44.6292 18.6667 43.9875C18.6667 42.6412 18.9227 42.4816 19.0877 43.725C19.1514 44.2062 19.2797 44.6 19.3726 44.6C19.4655 44.6 19.5417 44.7916 19.5417 45.0258C19.5417 45.2993 19.6682 45.4916 19.8955 45.5637C20.3269 45.7006 21.2917 45.5088 21.2917 45.2862C21.2917 45.1974 21.5316 45.125 21.8251 45.125C22.1691 45.125 22.5023 44.9698 22.7638 44.6875C22.9869 44.4469 23.3374 44.25 23.543 44.25C23.7485 44.25 23.9167 44.1656 23.9167 44.0626C23.9167 43.8202 24.3619 43.375 24.6042 43.375C24.7073 43.375 24.7917 43.1781 24.7917 42.9375C24.7917 42.655 24.8898 42.5 25.0687 42.5C25.2211 42.5 25.3133 42.4016 25.2736 42.2812C25.2288 42.1458 24.7901 42.0427 24.1216 42.0103C23.5276 41.9818 23.0417 41.8833 23.0417 41.7916C23.0417 41.7001 22.7604 41.625 22.4167 41.625C21.8051 41.625 21.2917 41.3112 21.2917 40.9374C21.2917 40.8344 21.2129 40.75 21.1167 40.75C20.8442 40.75 20.9077 39.1839 21.1917 38.9001C21.4749 38.6167 22.5167 38.5578 22.5167 38.825C22.5167 38.9212 22.6348 39 22.7792 39C22.9424 39 23.0417 39.1652 23.0417 39.4375C23.0417 39.7875 22.9542 39.875 22.6042 39.875C22.3635 39.875 22.1667 39.7962 22.1667 39.7C22.1667 39.4317 21.8249 39.4918 21.4996 39.8173C21.2869 40.0297 21.2665 40.1291 21.4245 40.1818C21.544 40.2217 21.6417 40.3657 21.6417 40.502C21.6417 40.6385 21.7598 40.75 21.9042 40.75C22.0485 40.75 22.1667 40.8214 22.1667 40.9086C22.1667 40.9959 22.5604 41.1213 23.0417 41.1875C23.5229 41.2536 23.9167 41.3791 23.9167 41.4664C23.9167 41.5536 24.1923 41.625 24.5292 41.625C24.866 41.625 25.1417 41.5548 25.1417 41.4689C25.1417 41.3831 25.3333 41.2648 25.5674 41.206C25.8018 41.1472 26.0433 40.9418 26.1043 40.7496C26.1652 40.5573 26.2886 40.4 26.3784 40.4C26.623 40.4 26.5751 38.6624 26.3229 38.381C25.8035 37.802 25.6667 37.604 25.6667 37.4323C25.6667 37.3321 25.5823 37.25 25.4792 37.25C25.376 37.25 25.1819 37.1516 25.0477 37.0312C24.4023 36.4523 24.2387 36.375 23.6615 36.375C23.3206 36.375 23.0417 36.2962 23.0417 36.2C23.0417 36.1027 22.5732 36.025 21.9862 36.025C21.2094 36.025 20.904 35.9557 20.83 35.7625C20.7514 35.5581 20.4046 35.5 19.2604 35.5C18.4526 35.5 17.7917 35.5702 17.7917 35.6561ZM14.2917 37.075C14.2917 37.1712 14.2073 37.25 14.1042 37.25C13.8619 37.25 13.4167 37.6952 13.4167 37.9376C13.4167 38.0406 13.3465 38.125 13.2606 38.125C13.1748 38.125 13.0551 38.3219 12.9947 38.5625C12.9344 38.8031 12.8077 39 12.7133 39C12.6188 39 12.5417 39.1902 12.5417 39.423C12.5417 39.6555 12.4535 39.8752 12.3458 39.911C12.2198 39.953 12.15 40.5645 12.15 41.625C12.15 42.6855 12.2198 43.297 12.3458 43.339C12.4535 43.3748 12.5417 43.5945 12.5417 43.827C12.5417 44.0598 12.6204 44.25 12.7167 44.25C12.8129 44.25 12.8917 43.9744 12.8917 43.6375C12.8917 43.3006 12.8129 43.025 12.7167 43.025C12.618 43.025 12.5417 42.5292 12.5417 41.8875C12.5417 41.2619 12.6103 40.75 12.6943 40.75C12.7783 40.75 12.8973 40.435 12.9589 40.05C13.0205 39.665 13.1486 39.35 13.2438 39.35C13.3388 39.35 13.4167 39.1892 13.4167 38.9927C13.4167 38.6591 13.5143 38.4918 14.0729 37.869C14.1933 37.7347 14.2917 37.5407 14.2917 37.4374C14.2917 37.3344 14.3704 37.25 14.4667 37.25C14.5629 37.25 14.6417 37.1712 14.6417 37.075C14.6417 36.9787 14.5629 36.9 14.4667 36.9C14.3704 36.9 14.2917 36.9787 14.2917 37.075ZM49.8167 39.2625C49.8167 39.4069 49.6985 39.525 49.5542 39.525C49.4084 39.525 49.2917 39.6806 49.2917 39.875C49.2917 40.0675 49.2129 40.225 49.1167 40.225C49.0204 40.225 48.9417 40.3431 48.9417 40.4875C48.9417 40.6319 48.8235 40.75 48.6792 40.75C48.5348 40.75 48.4167 40.8344 48.4167 40.9374C48.4167 41.1798 47.9715 41.625 47.7291 41.625C47.626 41.625 47.5417 41.7022 47.5417 41.7967C47.5417 41.891 47.3448 42.0177 47.1042 42.0781C46.8635 42.1384 46.6667 42.2581 46.6667 42.3439C46.6667 42.4298 46.5036 42.5 46.3042 42.5C46.1047 42.5 45.8235 42.6181 45.6791 42.7625C45.5348 42.9069 45.2254 43.025 44.9917 43.025C44.7579 43.025 44.5667 43.1037 44.5667 43.2C44.5667 43.2987 44.0709 43.375 43.4292 43.375C42.0124 43.375 41.942 43.6403 43.3173 43.7959C44.4277 43.9215 45.7917 43.7737 45.7917 43.5276C45.7917 43.4436 46.0673 43.375 46.4042 43.375C46.741 43.375 47.0167 43.2962 47.0167 43.2C47.0167 43.1037 47.1348 43.025 47.2792 43.025C47.4235 43.025 47.5417 42.9069 47.5417 42.7625C47.5417 42.5992 47.7069 42.5 47.9792 42.5C48.2198 42.5 48.4167 42.4156 48.4167 42.3126C48.4167 42.2093 48.5152 42.0153 48.6354 41.881C49.1548 41.302 49.2917 41.104 49.2917 40.9323C49.2917 40.8321 49.3618 40.75 49.4478 40.75C49.5335 40.75 49.6532 40.5531 49.7136 40.3125C49.774 40.0719 49.9007 39.875 49.995 39.875C50.0895 39.875 50.1667 39.6781 50.1667 39.4375C50.1667 39.1969 50.0879 39 49.9917 39C49.8954 39 49.8167 39.1181 49.8167 39.2625ZM61.5417 40.3125C61.5417 40.5531 61.6131 40.75 61.7002 40.75C61.7875 40.75 61.913 41.1437 61.9792 41.625C62.0453 42.1062 62.1708 42.5 62.2581 42.5C62.3453 42.5 62.4167 42.815 62.4167 43.2C62.4167 43.585 62.4867 43.9 62.5722 43.9C62.6576 43.9 62.7794 44.1756 62.8426 44.5125C62.9058 44.8494 63.0327 45.125 63.1245 45.125C63.2164 45.125 63.2917 45.3219 63.2917 45.5625C63.2917 45.8031 63.3618 46 63.4478 46C63.5335 46 63.6532 46.1969 63.7136 46.4375C63.774 46.6781 63.9007 46.875 63.995 46.875C64.0895 46.875 64.1667 47.0719 64.1667 47.3125C64.1667 47.5531 64.2368 47.75 64.3228 47.75C64.4085 47.75 64.5282 47.9469 64.5886 48.1875C64.649 48.4281 64.7757 48.625 64.87 48.625C64.9645 48.625 65.0417 48.7431 65.0417 48.8875C65.0417 49.0319 65.1188 49.15 65.2133 49.15C65.3077 49.15 65.4344 49.3469 65.4947 49.5875C65.5551 49.8281 65.6748 50.025 65.7606 50.025C65.8465 50.025 65.9167 50.1468 65.9167 50.2959C65.9167 50.4448 66.1135 50.7491 66.3542 50.9721C66.5948 51.1952 66.7917 51.4332 66.7917 51.5013C66.7917 51.5694 66.8902 51.7347 67.0104 51.869C67.5298 52.448 67.6667 52.646 67.6667 52.8177C67.6667 52.9179 67.7438 53 67.8383 53C67.9327 53 68.0594 53.1969 68.1197 53.4375C68.1801 53.6781 68.2998 53.875 68.3856 53.875C68.4715 53.875 68.5417 53.9594 68.5417 54.0624C68.5417 54.1657 68.6402 54.3597 68.7604 54.494C69.319 55.1168 69.4167 55.2841 69.4167 55.6177C69.4167 55.8142 69.4868 55.975 69.5728 55.975C69.6585 55.975 69.7782 56.1719 69.8386 56.4125C69.899 56.6531 70.0257 56.85 70.12 56.85C70.2145 56.85 70.2917 57.0862 70.2917 57.375C70.2917 57.6637 70.3704 57.9 70.4667 57.9C70.5629 57.9 70.6417 57.585 70.6417 57.2C70.6417 56.815 70.5629 56.5 70.4667 56.5C70.3704 56.5 70.2917 56.3031 70.2917 56.0625C70.2917 55.8219 70.2129 55.625 70.1167 55.625C70.0204 55.625 69.9417 55.4337 69.9417 55.1999C69.9417 54.9663 69.8235 54.6569 69.6792 54.5125C69.5348 54.3682 69.4167 54.0869 69.4167 53.8874C69.4167 53.6881 69.3465 53.525 69.2606 53.525C69.1748 53.525 69.0551 53.3281 68.9947 53.0875C68.9344 52.8469 68.8077 52.65 68.7133 52.65C68.6188 52.65 68.5417 52.5319 68.5417 52.3875C68.5417 52.2431 68.4715 52.125 68.3856 52.125C68.2998 52.125 68.1801 51.9281 68.1197 51.6875C68.0594 51.4469 67.9327 51.25 67.8383 51.25C67.7438 51.25 67.6667 51.1656 67.6667 51.0626C67.6667 50.9593 67.5683 50.7653 67.4479 50.631C66.9285 50.052 66.7917 49.854 66.7917 49.6823C66.7917 49.5821 66.7182 49.5 66.6284 49.5C66.5386 49.5 66.4093 49.3229 66.3409 49.1062C66.2726 48.8896 66.0817 48.5944 65.9167 48.45C65.7516 48.3056 65.5607 48.0104 65.4925 47.7937C65.424 47.5771 65.2947 47.4 65.2049 47.4C65.1152 47.4 65.0417 47.2819 65.0417 47.1375C65.0417 46.9931 64.9715 46.875 64.8856 46.875C64.7998 46.875 64.6801 46.6781 64.6197 46.4375C64.5594 46.1969 64.4327 46 64.3383 46C64.2438 46 64.1667 45.8031 64.1667 45.5625C64.1667 45.3219 64.0965 45.125 64.0106 45.125C63.9248 45.125 63.8051 44.9281 63.7447 44.6875C63.6844 44.4469 63.5577 44.25 63.4633 44.25C63.3688 44.25 63.2917 43.9744 63.2917 43.6375C63.2917 43.3006 63.2192 43.025 63.1305 43.025C63.0419 43.025 62.9175 42.7887 62.8542 42.5C62.7908 42.2112 62.6664 41.975 62.5778 41.975C62.4891 41.975 62.4167 41.6994 62.4167 41.3625C62.4167 40.9348 62.3376 40.75 62.1542 40.75C61.9909 40.75 61.8917 40.5848 61.8917 40.3125C61.8917 40.0719 61.8129 39.875 61.7167 39.875C61.6204 39.875 61.5417 40.0719 61.5417 40.3125ZM34.9417 42.675C34.9417 42.7712 35.0204 42.85 35.1167 42.85C35.2129 42.85 35.2917 42.7712 35.2917 42.675C35.2917 42.5787 35.2129 42.5 35.1167 42.5C35.0204 42.5 34.9417 42.5787 34.9417 42.675ZM13.0667 44.8625C13.0667 45.0069 13.1454 45.125 13.2417 45.125C13.3379 45.125 13.4167 45.0069 13.4167 44.8625C13.4167 44.7181 13.3379 44.6 13.2417 44.6C13.1454 44.6 13.0667 44.7181 13.0667 44.8625ZM13.8542 46.875C13.7908 47.1637 13.6664 47.4 13.5778 47.4C13.4891 47.4 13.4167 47.9512 13.4167 48.625C13.4167 49.2987 13.4891 49.85 13.5778 49.85C13.6664 49.85 13.7908 50.0862 13.8542 50.375C13.9175 50.6637 14.0419 50.9 14.1305 50.9C14.2192 50.9 14.2917 51.0181 14.2917 51.1625C14.2917 51.4056 14.8804 52.125 15.0792 52.125C15.1273 52.125 15.1667 51.81 15.1667 51.425C15.1667 51.04 15.2454 50.725 15.3417 50.725C15.4379 50.725 15.5167 50.5675 15.5167 50.375C15.5167 50.1825 15.4379 50.025 15.3417 50.025C15.2454 50.025 15.1667 49.9069 15.1667 49.7625C15.1667 49.6181 15.0879 49.5 14.9917 49.5C14.8954 49.5 14.8167 49.3031 14.8167 49.0625C14.8167 48.8219 14.8954 48.625 14.9917 48.625C15.0879 48.625 15.1667 48.3494 15.1667 48.0125C15.1667 47.6756 15.2454 47.4 15.3417 47.4C15.4379 47.4 15.5167 47.2819 15.5167 47.1375C15.5167 46.9886 15.3597 46.875 15.1542 46.875C14.9547 46.875 14.6735 46.7569 14.5291 46.6125C14.1427 46.2261 13.983 46.2882 13.8542 46.875ZM16.0417 47.4875C16.0417 47.8244 16.1204 48.1 16.2167 48.1C16.3129 48.1 16.3917 48.0212 16.3917 47.925C16.3917 47.8287 16.5098 47.75 16.6542 47.75C16.7985 47.75 16.9167 47.6319 16.9167 47.4875C16.9167 47.0619 17.2192 47.1875 17.3386 47.6625C17.399 47.9031 17.5257 48.1 17.62 48.1C17.7145 48.1 17.7917 48.1844 17.7917 48.2874C17.7917 48.6297 18.3049 48.9951 18.9274 49.0961C19.2652 49.1509 19.5417 49.2643 19.5417 49.3479C19.5417 49.5756 20.3769 49.5315 20.4543 49.2998C20.4956 49.1757 20.9338 49.1054 21.6037 49.1148C22.3312 49.1252 22.7694 49.0473 22.9391 48.8775C23.0935 48.7232 23.5402 48.625 24.0875 48.625C24.8183 48.625 25.058 48.5443 25.3888 48.1875C25.859 47.6802 26.7909 47.585 26.9604 48.0268C27.0189 48.1791 27.0667 48.6516 27.0667 49.0768C27.0667 49.5021 27.1454 49.85 27.2417 49.85C27.3379 49.85 27.4167 49.7712 27.4167 49.675C27.4167 49.5787 27.5348 49.5 27.6792 49.5C27.8626 49.5 27.9417 49.3152 27.9417 48.8875V48.275H28.8167C29.2979 48.275 29.6917 48.3537 29.6917 48.45C29.6917 48.5462 29.7704 48.625 29.8667 48.625C29.9629 48.625 30.0417 48.4281 30.0417 48.1875C30.0417 47.7801 29.9823 47.75 29.1812 47.75C28.6641 47.75 28.2801 47.6627 28.2187 47.5312C28.1371 47.3562 28.0962 47.3562 28.0146 47.5312C27.8932 47.7913 27.4167 47.8261 27.4167 47.575C27.4167 47.4738 26.8624 47.4 26.1042 47.4C25.3459 47.4 24.7917 47.4738 24.7917 47.575C24.7917 47.6833 23.8584 47.75 22.3417 47.75C20.9942 47.75 19.8917 47.6786 19.8917 47.5914C19.8917 47.5041 19.4979 47.3786 19.0167 47.3125C18.5354 47.2463 18.1417 47.1209 18.1417 47.0336C18.1417 46.9464 17.6692 46.875 17.0917 46.875H16.0417V47.4875ZM44.4979 47.6768C44.4394 47.8291 44.3917 48.1835 44.3917 48.4643C44.3917 48.7452 44.3129 48.975 44.2167 48.975C44.1204 48.975 44.0417 49.1752 44.0417 49.4198C44.0417 49.8346 43.9531 49.9981 43.3854 50.631C43.2652 50.7653 43.1667 50.9593 43.1667 51.0626C43.1667 51.1656 42.8517 51.25 42.4667 51.25C42.0817 51.25 41.7667 51.32 41.7667 51.4056C41.7667 51.491 41.491 51.6128 41.1542 51.6759C40.8173 51.7391 40.5417 51.866 40.5417 51.9579C40.5417 52.0498 40.3735 52.125 40.168 52.125C39.9624 52.125 39.6119 52.3219 39.3888 52.5625C39.1658 52.8031 38.8615 53 38.7126 53C38.5635 53 38.4417 53.0787 38.4417 53.175C38.4417 53.2712 38.5992 53.35 38.7917 53.35C38.9842 53.35 39.1417 53.2712 39.1417 53.175C39.1417 53.0787 39.3714 53 39.6521 53C39.9328 53 40.1901 52.9174 40.2237 52.8166C40.2573 52.7156 40.7363 52.5865 41.2882 52.5296C41.8402 52.4727 42.2917 52.3583 42.2917 52.2755C42.2917 52.1927 42.4885 52.125 42.7292 52.125C42.9698 52.125 43.1667 52.0515 43.1667 51.9617C43.1667 51.8719 43.3355 51.7451 43.5419 51.6795C44.0754 51.5102 44.9167 50.6011 44.9167 50.194C44.9167 50.0047 44.9954 49.85 45.0917 49.85C45.1879 49.85 45.2667 49.4956 45.2667 49.0625C45.2667 48.6294 45.1879 48.275 45.0917 48.275C44.9954 48.275 44.9167 48.0781 44.9167 47.8375C44.9167 47.3487 44.6613 47.2507 44.4979 47.6768ZM30.4471 49.0165C30.5054 49.7131 30.6351 50.3103 30.735 50.3437C30.8356 50.3771 30.9167 50.91 30.9167 51.5389C30.9167 52.6194 30.8988 52.6679 30.5415 52.5545C30.062 52.4024 29.1667 51.4918 29.1667 51.1565C29.1667 51.0153 29.0823 50.9 28.9792 50.9C28.6704 50.9 28.2917 51.3751 28.2917 51.7626C28.2917 52.0601 28.1821 52.125 27.6792 52.125C27.3423 52.125 27.0667 52.1936 27.0667 52.2776C27.0667 52.3616 26.7517 52.4806 26.3667 52.5422C25.9817 52.6038 25.6667 52.7319 25.6667 52.8271C25.6667 52.9221 25.391 53 25.0542 53C24.7173 53 24.4417 53.0787 24.4417 53.175C24.4417 53.2737 23.9459 53.35 23.3042 53.35C22.6624 53.35 22.1667 53.2737 22.1667 53.175C22.1667 53.0721 21.5542 53 20.6792 53C19.861 53 19.1917 52.9314 19.1917 52.8474C19.1917 52.7634 18.8767 52.6444 18.4917 52.5828C18.1067 52.5212 17.7917 52.3931 17.7917 52.2979C17.7917 52.2029 17.628 52.125 17.4282 52.125C17.0421 52.125 16.0417 51.2404 16.0417 50.8989C16.0417 50.7871 15.9433 50.7281 15.8229 50.7677C15.7027 50.8072 15.5797 51.1287 15.5499 51.4822C15.5086 51.9712 15.5609 52.125 15.7687 52.125C15.9188 52.125 16.0417 52.2094 16.0417 52.3124C16.0417 52.6252 16.5187 53 16.9167 53C17.123 53 17.4098 53.1181 17.5542 53.2625C17.6986 53.4069 18.008 53.525 18.2416 53.525C18.4754 53.525 18.6667 53.6037 18.6667 53.7C18.6667 53.7962 18.9423 53.875 19.2792 53.875C19.616 53.875 19.8917 53.9529 19.8917 54.0479C19.8917 54.1431 20.2067 54.2712 20.5917 54.3328C20.9767 54.3944 21.2917 54.5134 21.2917 54.5974C21.2917 54.6814 22.0792 54.75 23.0417 54.75C24.0042 54.75 24.7917 54.6816 24.7917 54.5977C24.7917 54.5141 25.1632 54.4037 25.6171 54.3524C26.0713 54.3013 26.4715 54.1728 26.5068 54.0671C26.542 53.9614 26.8728 53.875 27.2417 53.875C27.6202 53.875 27.9441 53.7803 27.9849 53.6578C28.0796 53.3736 28.5461 53.8234 28.7178 54.3645C28.7852 54.5764 28.9568 54.75 29.0993 54.75C29.2417 54.75 29.5408 54.9469 29.7638 55.1875C30.3885 55.8616 30.5647 55.7487 30.4466 54.75C30.3593 54.0138 30.3883 53.875 30.6298 53.875C30.7875 53.875 30.9167 53.7569 30.9167 53.6125C30.9167 53.4681 31.0348 53.35 31.1792 53.35C31.3235 53.35 31.4417 53.2712 31.4417 53.175C31.4417 53.0787 31.5992 53 31.7917 53C31.9842 53 32.1417 52.9276 32.1417 52.8388C32.1417 52.7503 32.3779 52.6258 32.6667 52.5625C32.9554 52.4991 33.1917 52.3747 33.1917 52.2862C33.1917 52.1974 33.3548 52.125 33.5541 52.125C33.9415 52.125 34.4167 51.7463 34.4167 51.4374C34.4167 51.3344 34.4919 51.25 34.5838 51.25C34.6757 51.25 34.8025 50.9744 34.8657 50.6375C34.9289 50.3006 35.0507 50.025 35.1361 50.025C35.2217 50.025 35.2917 49.5131 35.2917 48.8875V47.75H34.4167C33.9354 47.75 33.5417 47.8287 33.5417 47.925C33.5417 48.0212 33.2267 48.1 32.8417 48.1C32.4567 48.1 32.1417 48.0212 32.1417 47.925C32.1417 47.8287 31.7365 47.75 31.2413 47.75H30.3409L30.4471 49.0165ZM52.7917 48.45C52.7917 48.5462 52.8704 48.625 52.9667 48.625C53.0629 48.625 53.1417 48.5462 53.1417 48.45C53.1417 48.3537 53.0629 48.275 52.9667 48.275C52.8704 48.275 52.7917 48.3537 52.7917 48.45ZM24.7917 49.8736C24.7917 50.0793 24.5948 50.4298 24.3542 50.6529C24.1135 50.8759 23.9167 51.1802 23.9167 51.3291C23.9167 51.5015 23.7574 51.6 23.4792 51.6C23.2385 51.6 23.0417 51.5212 23.0417 51.425C23.0417 51.3287 22.9235 51.25 22.7792 51.25C22.6348 51.25 22.5167 51.1319 22.5167 50.9875C22.5167 50.8431 22.4379 50.725 22.3417 50.725C22.2454 50.725 22.1667 50.8431 22.1667 50.9875C22.1667 51.1718 21.9806 51.25 21.5417 51.25C20.9301 51.25 20.4167 50.9362 20.4167 50.5624C20.4167 50.4594 20.3379 50.375 20.2417 50.375C20.1454 50.375 20.0667 50.4474 20.0667 50.5362C20.0667 50.7586 19.1019 50.9506 18.671 50.8139C18.4766 50.7521 18.2694 50.5101 18.2106 50.2758C18.0787 49.7501 17.7917 49.7149 17.7917 50.2245C17.7917 50.4305 17.6693 50.6884 17.5197 50.7978C17.3554 50.918 17.2934 51.1161 17.3634 51.2983C17.4879 51.6229 17.7917 51.7127 17.7917 51.425C17.7917 51.3287 17.9098 51.25 18.0542 51.25C18.1985 51.25 18.3167 51.3272 18.3167 51.4217C18.3167 51.516 18.5135 51.6427 18.7542 51.7031C18.9948 51.7634 19.1917 51.8831 19.1917 51.9689C19.1917 52.0548 19.6642 52.125 20.2417 52.125C20.8249 52.125 21.2917 52.2027 21.2917 52.3C21.2917 52.3962 21.4885 52.475 21.7292 52.475C21.9698 52.475 22.1667 52.3962 22.1667 52.3C22.1667 52.0406 23.8671 52.0814 23.9896 52.3437C24.0712 52.5187 24.1121 52.5187 24.1937 52.3437C24.2499 52.2233 24.6041 52.125 24.9812 52.125C25.456 52.125 25.6667 52.0487 25.6667 51.877C25.6667 51.7407 25.7652 51.5832 25.8854 51.527C26.0604 51.4455 26.0604 51.4045 25.8854 51.323C25.7652 51.2668 25.6667 51.0305 25.6667 50.798C25.6667 50.5652 25.5895 50.375 25.495 50.375C25.4007 50.375 25.274 50.1781 25.2136 49.9375C25.0794 49.4029 24.7917 49.3595 24.7917 49.8736ZM37.0417 49.675C37.0417 49.7712 37.1204 49.85 37.2167 49.85C37.3129 49.85 37.3917 49.7712 37.3917 49.675C37.3917 49.5787 37.3129 49.5 37.2167 49.5C37.1204 49.5 37.0417 49.5787 37.0417 49.675ZM36.6917 51.075C36.6917 51.46 36.7704 51.775 36.8667 51.775C36.9629 51.775 37.0417 51.46 37.0417 51.075C37.0417 50.69 36.9629 50.375 36.8667 50.375C36.7704 50.375 36.6917 50.69 36.6917 51.075ZM36.1667 52.2125C36.1667 52.4531 36.0895 52.65 35.995 52.65C35.9007 52.65 35.774 52.8469 35.7136 53.0875C35.6532 53.3281 35.5335 53.525 35.4478 53.525C35.3618 53.525 35.2917 53.6468 35.2917 53.7959C35.2917 53.9448 35.0948 54.2491 34.8542 54.4721C34.6135 54.6952 34.4167 54.9332 34.4167 55.0013C34.4167 55.192 33.9393 55.625 33.7291 55.625C33.626 55.625 33.5417 55.7094 33.5417 55.8124C33.5417 56.0548 33.0965 56.5 32.8541 56.5C32.751 56.5 32.6667 56.5844 32.6667 56.6874C32.6667 56.9298 32.2215 57.375 31.9791 57.375C31.876 57.375 31.7917 57.4452 31.7917 57.5311C31.7917 57.6168 31.5948 57.7366 31.3542 57.7969C31.1135 57.8573 30.9167 57.984 30.9167 58.0783C30.9167 58.1728 30.7198 58.25 30.4792 58.25C30.2385 58.25 30.0417 58.3272 30.0417 58.4217C30.0417 58.516 29.8448 58.6427 29.6042 58.7031C29.3635 58.7634 29.1667 58.8831 29.1667 58.9689C29.1667 59.0548 28.7729 59.125 28.2917 59.125C27.8104 59.125 27.4167 59.2037 27.4167 59.3C27.4167 59.4066 26.6292 59.475 25.4042 59.475C24.1792 59.475 23.3917 59.4066 23.3917 59.3C23.3917 59.2037 23.0373 59.125 22.6042 59.125C22.171 59.125 21.8167 59.0526 21.8167 58.9638C21.8167 58.8753 21.5804 58.7508 21.2917 58.6875C21.0029 58.6241 20.7667 58.4997 20.7667 58.4112C20.7667 58.3224 20.5698 58.25 20.3292 58.25C20.0885 58.25 19.8917 58.1765 19.8917 58.0867C19.8917 57.9969 19.7146 57.8676 19.4979 57.7992C19.2813 57.731 18.9768 57.5286 18.8212 57.35C18.6654 57.1713 18.4519 57.025 18.3466 57.025C18.2414 57.025 17.8433 56.71 17.4621 56.325C17.081 55.94 16.6843 55.625 16.5803 55.625C16.4765 55.625 16.3917 55.5069 16.3917 55.3625C16.3917 55.2181 16.3129 55.1 16.2167 55.1C15.8103 55.1 16.1215 55.551 17.431 56.8607C18.2678 57.6975 18.9638 58.25 19.181 58.25C19.3794 58.25 19.5417 58.3272 19.5417 58.4217C19.5417 58.516 19.7385 58.6427 19.9792 58.7031C20.2198 58.7634 20.4167 58.8831 20.4167 58.9689C20.4167 59.0548 20.6135 59.125 20.8542 59.125C21.0948 59.125 21.2917 59.2029 21.2917 59.2979C21.2917 59.3931 21.6067 59.5212 21.9917 59.5828C22.3767 59.6444 22.6917 59.7634 22.6917 59.8474C22.6917 59.9314 23.8729 60 25.3167 60C26.8358 60 27.9417 59.9309 27.9417 59.8357C27.9417 59.7454 28.296 59.6183 28.7292 59.5534C29.1623 59.4885 29.5167 59.3654 29.5167 59.28C29.5167 59.1948 29.7135 59.125 29.9542 59.125C30.1948 59.125 30.3917 59.0548 30.3917 58.9689C30.3917 58.8831 30.5885 58.7634 30.8292 58.7031C31.0698 58.6427 31.2667 58.516 31.2667 58.4217C31.2667 58.3272 31.3848 58.25 31.5292 58.25C31.6735 58.25 31.7917 58.1798 31.7917 58.0939C31.7917 58.0081 31.9885 57.8884 32.2292 57.8281C32.4698 57.7677 32.6667 57.641 32.6667 57.5467C32.6667 57.4522 32.751 57.375 32.8541 57.375C33.0965 57.375 33.5417 56.9298 33.5417 56.6874C33.5417 56.5844 33.626 56.5 33.7291 56.5C33.9393 56.5 34.4167 56.067 34.4167 55.8763C34.4167 55.8082 34.6135 55.5702 34.8542 55.3471C35.0948 55.1241 35.2917 54.8555 35.2917 54.75C35.2917 54.6445 35.4885 54.3759 35.7292 54.1529C35.9698 53.9298 36.1667 53.5793 36.1667 53.3736C36.1667 53.1682 36.2454 53 36.3417 53C36.4379 53 36.5167 52.7244 36.5167 52.3875C36.5167 52.0506 36.4379 51.775 36.3417 51.775C36.2454 51.775 36.1667 51.9719 36.1667 52.2125ZM55.4167 52.825C55.4167 52.9212 55.3346 53 55.2343 53C55.0626 53 54.8647 53.1368 54.2856 53.6562C54.1514 53.7766 53.986 53.875 53.918 53.875C53.8499 53.875 53.6119 54.0719 53.3888 54.3125C53.1658 54.5531 52.8972 54.75 52.7917 54.75C52.6861 54.75 52.4175 54.9469 52.1946 55.1875C51.9714 55.4281 51.6209 55.625 51.4153 55.625C51.2098 55.625 51.0417 55.7094 51.0417 55.8124C51.0417 56.0548 50.5965 56.5 50.3541 56.5C50.251 56.5 50.1667 56.5702 50.1667 56.6561C50.1667 56.7418 49.9698 56.8616 49.7292 56.9219C49.4885 56.9823 49.2917 57.109 49.2917 57.2033C49.2917 57.2978 49.2073 57.375 49.1042 57.375C49.001 57.375 48.8069 57.4735 48.6727 57.5937C48.1326 58.0781 47.9009 58.25 47.7879 58.25C47.7226 58.25 47.4869 58.4469 47.2638 58.6875C47.0408 58.9281 46.7365 59.125 46.5876 59.125C46.4385 59.125 46.3167 59.2037 46.3167 59.3C46.3167 59.3962 46.1985 59.475 46.0542 59.475C45.9098 59.475 45.7917 59.5931 45.7917 59.7375C45.7917 59.9008 45.6265 60 45.3542 60C45.1135 60 44.9167 60.0844 44.9167 60.1874C44.9167 60.2907 44.8041 60.4876 44.6666 60.6249C44.5292 60.7625 44.3323 60.875 44.2291 60.875C44.126 60.875 44.0417 60.9594 44.0417 61.0624C44.0417 61.1657 43.9291 61.3626 43.7916 61.4999C43.6542 61.6375 43.4573 61.75 43.3541 61.75C43.251 61.75 43.1667 61.8344 43.1667 61.9374C43.1667 62.1798 42.7215 62.625 42.4791 62.625C42.376 62.625 42.2917 62.7094 42.2917 62.8124C42.2917 62.9157 42.1933 63.1097 42.0729 63.244C41.5535 63.823 41.4167 64.021 41.4167 64.1927C41.4167 64.2929 41.3395 64.375 41.245 64.375C41.1507 64.375 41.024 64.5719 40.9636 64.8125C40.9032 65.0531 40.7835 65.25 40.6978 65.25C40.6118 65.25 40.5417 65.3681 40.5417 65.5125C40.5417 65.6569 40.4645 65.775 40.37 65.775C40.2757 65.775 40.149 65.9719 40.0886 66.2125C40.0282 66.4531 39.9085 66.65 39.8228 66.65C39.7368 66.65 39.6667 66.8075 39.6667 67C39.6667 67.1925 39.7402 67.35 39.8299 67.35C39.9197 67.35 40.0431 67.1925 40.1042 67C40.1652 66.8075 40.2886 66.65 40.3784 66.65C40.4682 66.65 40.5417 66.5319 40.5417 66.3875C40.5417 66.2431 40.626 66.125 40.7291 66.125C40.8323 66.125 41.0292 66.0125 41.1666 65.8749C41.3041 65.7376 41.4167 65.5407 41.4167 65.4374C41.4167 65.3344 41.501 65.25 41.6041 65.25C41.8087 65.25 42.2917 64.819 42.2917 64.6366C42.2917 64.4887 43.2804 63.5 43.4283 63.5C43.6106 63.5 44.0417 63.017 44.0417 62.8124C44.0417 62.7094 44.126 62.625 44.2291 62.625C44.3323 62.625 44.5292 62.5125 44.6666 62.3749C44.8041 62.2376 44.9167 62.0407 44.9167 61.9374C44.9167 61.8344 45.1135 61.75 45.3542 61.75C45.5948 61.75 45.7917 61.6656 45.7917 61.5626C45.7917 61.3524 46.2246 60.875 46.4154 60.875C46.4834 60.875 46.7214 60.6781 46.9446 60.4375C47.1675 60.1969 47.4718 60 47.6208 60C47.7699 60 47.8917 59.9212 47.8917 59.825C47.8917 59.7287 48.0098 59.65 48.1542 59.65C48.2985 59.65 48.4167 59.5319 48.4167 59.3875C48.4167 59.2242 48.5819 59.125 48.8542 59.125C49.0948 59.125 49.2917 59.0478 49.2917 58.9533C49.2917 58.859 49.4885 58.7323 49.7292 58.6719C49.9698 58.6116 50.1667 58.4918 50.1667 58.4061C50.1667 58.3202 50.2848 58.25 50.4292 58.25C50.5735 58.25 50.6917 58.1728 50.6917 58.0783C50.6917 57.984 50.8885 57.8573 51.1292 57.7969C51.3698 57.7366 51.5667 57.6168 51.5667 57.5311C51.5667 57.4452 51.6885 57.375 51.8376 57.375C51.9865 57.375 52.2908 57.1781 52.5138 56.9375C52.7369 56.6969 52.9749 56.5 53.043 56.5C53.2337 56.5 53.6667 56.0226 53.6667 55.8124C53.6667 55.7094 53.7848 55.625 53.9292 55.625C54.0735 55.625 54.1917 55.5427 54.1917 55.4421C54.1917 55.3415 54.3885 55.0622 54.6292 54.8216C54.8698 54.5809 55.0667 54.2696 55.0667 54.1296C55.0667 53.9896 55.1454 53.875 55.2417 53.875C55.3379 53.875 55.4167 53.7906 55.4167 53.6876C55.4167 53.5843 55.5348 53.3818 55.6792 53.2375C55.8235 53.0931 55.9417 52.9018 55.9417 52.8126C55.9417 52.7231 55.8235 52.65 55.6792 52.65C55.5348 52.65 55.4167 52.7287 55.4167 52.825ZM37.9167 53.7C37.9167 53.7962 37.9954 53.875 38.0917 53.875C38.1879 53.875 38.2667 53.7962 38.2667 53.7C38.2667 53.6037 38.1879 53.525 38.0917 53.525C37.9954 53.525 37.9167 53.6037 37.9167 53.7ZM15.6917 54.575C15.6917 54.6712 15.7704 54.75 15.8667 54.75C15.9629 54.75 16.0417 54.6712 16.0417 54.575C16.0417 54.4787 15.9629 54.4 15.8667 54.4C15.7704 54.4 15.6917 54.4787 15.6917 54.575ZM70.8167 58.8625C70.8167 59.1994 70.8954 59.475 70.9917 59.475C71.0879 59.475 71.1667 59.1994 71.1667 58.8625C71.1667 58.5256 71.0879 58.25 70.9917 58.25C70.8954 58.25 70.8167 58.5256 70.8167 58.8625ZM71.1667 60.6125C71.1667 60.9494 71.2454 61.225 71.3417 61.225C71.4379 61.225 71.5167 60.9494 71.5167 60.6125C71.5167 60.2756 71.4379 60 71.3417 60C71.2454 60 71.1667 60.2756 71.1667 60.6125ZM21.5104 61.3408C21.2663 61.4394 21.2064 62.1 21.4418 62.1C21.5242 62.1 21.6432 62.5923 21.7059 63.1937C21.7687 63.7954 21.898 64.3138 21.9934 64.3458C22.0886 64.378 22.1667 64.5945 22.1667 64.827C22.1667 65.0598 22.2368 65.25 22.3228 65.25C22.4085 65.25 22.5282 65.4469 22.5886 65.6875C22.649 65.9281 22.7757 66.125 22.87 66.125C22.9645 66.125 23.0417 66.2876 23.0417 66.4864C23.0417 66.805 24.7673 68.75 25.0501 68.75C25.152 68.75 25.3938 68.932 25.9227 69.4062C26.0569 69.5266 26.3297 69.625 26.5292 69.625C26.7286 69.625 26.8917 69.6974 26.8917 69.7862C26.8917 69.8747 27.1279 69.9991 27.4167 70.0625C27.7054 70.1258 27.9417 70.2503 27.9417 70.3388C27.9417 70.4276 28.0992 70.5 28.2917 70.5C28.4842 70.5 28.6417 70.4212 28.6417 70.325C28.6417 70.2287 28.5629 70.15 28.4667 70.15C28.3704 70.15 28.2917 70.0319 28.2917 69.8875C28.2917 69.7431 28.2073 69.625 28.1042 69.625C27.8619 69.625 27.4167 69.1798 27.4167 68.9374C27.4167 68.8344 27.3323 68.75 27.2292 68.75C26.9869 68.75 26.5417 68.3048 26.5417 68.0624C26.5417 67.9594 26.4573 67.875 26.3542 67.875C26.1119 67.875 25.6667 67.4298 25.6667 67.1874C25.6667 67.0844 25.5932 67 25.5034 67C25.4136 67 25.2843 66.8229 25.2159 66.6062C25.1476 66.3896 24.9453 66.0851 24.7666 65.9295C24.588 65.7738 24.4417 65.5573 24.4417 65.4483C24.4417 65.3392 24.3235 65.25 24.1792 65.25C24.0159 65.25 23.9167 65.0848 23.9167 64.8125C23.9167 64.5719 23.8395 64.375 23.745 64.375C23.6507 64.375 23.524 64.1781 23.4636 63.9375C23.4032 63.6969 23.2835 63.5 23.1978 63.5C23.1118 63.5 23.0417 63.3819 23.0417 63.2375C23.0417 63.0931 22.9645 62.975 22.87 62.975C22.7757 62.975 22.649 62.7781 22.5886 62.5375C22.5282 62.2969 22.4085 62.1 22.3228 62.1C22.2368 62.1 22.1667 61.9031 22.1667 61.6625C22.1667 61.2427 21.9803 61.1513 21.5104 61.3408Z" fill="#FFC700"/>
</svg>
