<svg width="71" height="70" viewBox="0 0 71 70" fill="none" xmlns="http://www.w3.org/2000/svg">
<path d="M34.5545 27.0058C34.5545 20.522 29.264 15.248 22.7617 15.248C22.042 15.248 21.3409 15.3224 20.6573 15.4481C23.235 14.109 25.452 12.1682 27.1203 9.79017C27.5687 9.14267 25.5201 7.88923 25.1362 8.42298C22.509 12.2259 18.3451 14.6519 13.6693 15.0434C13.0284 15.0883 13.0929 17.4869 13.9253 17.43C14.8767 17.3413 15.8193 17.1756 16.7439 16.9345C13.3325 18.993 11.0378 22.7314 11.0378 27.0069C11.0378 33.4906 16.2976 38.7647 22.7617 38.7647C29.264 38.7636 34.5545 33.4895 34.5545 27.0058ZM22.7617 37.123C17.2022 37.123 12.6784 32.585 12.6784 27.0058C12.6784 21.4266 17.2022 16.8886 22.7617 16.8886C28.3595 16.8886 32.9139 21.4266 32.9139 27.0058C32.9139 32.585 28.3595 37.123 22.7617 37.123Z" fill="#FFC700"/>
<path d="M22.765 23.1777C20.7164 23.1777 18.9379 24.8916 18.9379 27.0058C18.9379 29.1211 20.7164 30.8339 22.765 30.8339C23.2683 30.8359 23.7671 30.7383 24.2325 30.5467C24.6979 30.355 25.1208 30.0731 25.4768 29.7173C25.8327 29.3614 26.1147 28.9386 26.3065 28.4732C26.4983 28.0079 26.5961 27.5091 26.5942 27.0058C26.5942 24.8927 24.9021 23.1777 22.765 23.1777ZM47.9453 38.7636C54.4082 38.7636 59.667 33.4895 59.667 27.0058C59.667 22.5269 57.1568 18.6288 53.4753 16.6436C54.5504 16.9433 55.6529 17.1675 56.7817 17.2616C57.5506 17.3195 57.6151 14.9177 56.9742 14.875C52.3618 14.4845 48.199 12.0575 45.5073 8.25454C45.1868 7.71861 43.1361 8.97423 43.5845 9.62392C45.3607 12.2106 47.7943 14.2286 50.5746 15.5553C49.7131 15.3529 48.8313 15.2494 47.9464 15.2469C41.444 15.2469 36.1525 20.521 36.1525 27.0047C36.1525 33.4885 41.4429 38.7636 47.9453 38.7636ZM47.9453 16.8886C53.5037 16.8886 58.0264 21.4266 58.0264 27.0058C58.0264 32.585 53.5037 37.123 47.9453 37.123C42.3464 37.123 37.792 32.585 37.792 27.0058C37.792 21.4266 42.3464 16.8886 47.9453 16.8886Z" fill="#FFC700"/>
<path d="M47.9562 30.834C50.0256 30.834 51.7373 29.1212 51.7373 27.0059C51.7373 24.8916 50.0256 23.1777 47.9562 23.1777C45.7928 23.1777 44.0821 24.8916 44.0821 27.0059C44.0821 29.1212 45.7928 30.834 47.9562 30.834ZM35.3212 37.2324C30.325 37.2324 26.2234 43.1179 26.2234 50.3804C26.2234 57.6396 30.325 63.5273 35.3212 63.5273C40.382 63.5273 44.4814 57.6396 44.4814 50.3804C44.4814 43.1179 40.382 37.2324 35.3212 37.2324ZM35.3212 61.8735C33.0145 61.8735 31.0293 60.2974 29.94 57.9579C29.94 57.9579 31.0939 56.7187 35.3212 56.7187C39.5485 56.7187 40.767 57.9579 40.767 57.9579C39.6776 60.2974 37.6903 61.8735 35.3212 61.8735Z" fill="#FFC700"/>
<path d="M67.5201 37.2553C67.9029 36.3573 68.1228 35.5884 68.1228 35C68.1228 16.8787 53.4523 2.1875 35.3223 2.1875C17.2558 2.1875 2.52185 16.8787 2.52185 35C2.52185 35.5895 2.74388 36.365 3.13216 37.2684C1.49044 37.6338 3.87591 40.9598 4.44248 45.4891C5.53185 53.9634 12.0025 58.823 12.9639 65.7748C13.0284 66.2812 12.9639 67.8125 12.9639 67.8125H27.8892C27.8892 67.8125 27.8279 66.4103 27.8323 65.2148C29.9979 66.5569 32.8723 67.8125 35.3212 67.8125C37.8172 67.8125 40.6762 66.5689 42.8353 65.2367C42.8408 66.4256 42.7511 67.8125 42.7511 67.8125H57.7431C57.7431 67.8125 57.6786 66.2812 57.7431 65.7748C58.7045 58.8241 65.174 53.9634 66.2634 45.4891C66.8387 40.9073 69.2756 37.5539 67.5201 37.2553ZM35.3212 65.0781C33.7309 65.0781 31.3673 64.213 29.1809 62.837C28.7232 62.538 28.2763 62.2228 27.8411 61.892C27.2712 58.9159 24.4351 54.9544 17.5117 49.9877C13.0919 46.8234 12.3229 40.1691 6.62123 38.0614L6.59169 38.0505C5.69044 36.4973 5.27373 35.4616 5.25623 35C5.25623 18.4144 18.7433 4.92188 35.3212 4.92188C51.8992 4.92188 65.3873 18.4144 65.3873 34.9956C65.3698 35.4627 64.9498 36.5105 64.0398 38.0811C58.3819 40.2095 57.602 46.8322 53.1953 49.9877C46.2478 54.9719 43.415 58.9433 42.8233 61.9227C42.3715 62.2628 41.9428 62.5669 41.5501 62.8195C39.3069 64.2348 36.9783 65.0781 35.3212 65.0781Z" fill="#FFC700"/>
</svg>
