<svg width="88" height="71" viewBox="0 0 88 71" fill="none" xmlns="http://www.w3.org/2000/svg">
<path d="M46.0579 20.3474L36.1646 4.85411C35.5854 3.74336 35.8475 2.40194 36.8179 1.77415C37.9276 1.19131 39.1808 1.46374 39.8046 2.4274L49.6979 18.0141C50.277 19.1248 50.0153 20.4667 49.0446 21.0941C47.9377 21.6276 46.5815 21.2658 46.0579 20.3474ZM87.5911 23.2407C89.1825 26.1257 85.2379 28.4909 83.3911 29.4941C81.7734 29.3691 80.2335 29.1981 78.7711 28.9807C77.3088 28.763 76.0177 28.5608 74.8978 28.374C73.5911 28.1251 72.3778 27.8763 71.2578 27.6273C71.1311 28.2496 70.96 28.9029 70.7444 29.5873C70.5255 30.2717 70.261 30.9873 69.9511 31.7339C63.5888 30.3575 56.096 26.6342 52.5912 20.9073L64.5378 8.68074L66.6845 0.934082L71.2578 6.5341C74.4128 7.42101 78.7898 7.48328 80.1245 10.7341C81.2803 12.6813 81.1867 16.8109 82.4578 18.3874C83.1421 19.0718 83.8889 19.694 84.6978 20.254C85.5067 20.814 86.4711 21.8097 87.5911 23.2407ZM42.7912 49.1874C39.9637 49.1674 37.013 48.1864 34.2046 48.1608C32.5869 47.9743 31.9957 48.6897 32.4312 50.3075L36.3513 66.0807C36.2986 68.6144 34.9222 70.5547 32.898 70.8875C30.9281 71.0767 28.9471 69.2997 28.5113 67.9474L23.4713 48.1608C23.3469 47.4764 22.9579 47.1498 22.3046 47.1808C21.6512 47.2119 21.2313 47.5386 21.0445 48.1608L16.3779 67.8542C15.7626 69.7022 14.2714 70.9118 12.458 70.9341C9.78093 70.8871 7.93247 68.4005 8.44467 66.0807L14.138 42.7475L14.6047 28.6542C9.66993 27.4023 3.4339 24.0263 0.978085 19.3208C0.285331 17.7998 0.78742 16.3245 2.09807 15.5876C3.64726 14.8796 5.39955 15.5612 6.01803 16.6141C8.43442 20.3962 13.7687 22.8064 17.4047 22.8675H45.2178C43.4971 31.4991 42.5341 40.131 42.7912 49.1874ZM49.6045 24.4541C54.3159 30.5809 61.1056 34.4203 68.3645 35.9341C67.6889 37.9565 66.7865 39.9242 66.1712 41.7674C65.8911 42.6074 65.969 43.8362 66.4045 45.4541C68.193 52.3061 70.1596 59.6216 71.9112 65.9874C72.5933 71.3196 65.1881 71.206 64.0712 67.9474L60.0579 52.6407C58.9504 50.761 56.1809 50.3223 55.5779 52.6407L51.9379 67.854C50.0543 72.5514 43.3335 69.3932 44.0981 66.0807L47.5513 51.8941C47.6136 51.3962 47.5824 50.8983 47.458 50.4008C47.5181 41.7568 47.7939 32.9131 49.6045 24.4541Z" fill="#FFC700"/>
</svg>
