<svg width="70" height="70" viewBox="0 0 70 70" fill="none" xmlns="http://www.w3.org/2000/svg">
<path d="M32.8125 0C33.4049 0 33.9176 0.216471 34.3506 0.649414C34.7835 1.08236 35 1.59505 35 2.1875V26.25C35 27.4577 34.7721 28.5856 34.3164 29.6338C33.8607 30.682 33.234 31.6048 32.4365 32.4023C31.639 33.1999 30.7048 33.8265 29.6338 34.2822C28.5628 34.738 27.4349 34.9772 26.25 35V67.8125C26.25 68.4049 26.0335 68.9176 25.6006 69.3506C25.1676 69.7835 24.6549 70 24.0625 70C23.4701 70 22.9574 69.7835 22.5244 69.3506C22.0915 68.9176 21.875 68.4049 21.875 67.8125V35C20.6673 35 19.5394 34.7721 18.4912 34.3164C17.443 33.8607 16.5202 33.2341 15.7227 32.4365C14.9251 31.639 14.2985 30.7161 13.8428 29.668C13.387 28.6198 13.1478 27.4805 13.125 26.25V2.1875C13.125 1.59505 13.3415 1.08236 13.7744 0.649414C14.2074 0.216471 14.7201 0 15.3125 0C15.9049 0 16.4176 0.216471 16.8506 0.649414C17.2835 1.08236 17.5 1.59505 17.5 2.1875V26.25C17.5 26.8652 17.6139 27.4349 17.8418 27.959C18.0697 28.4831 18.3773 28.9388 18.7646 29.3262C19.152 29.7135 19.6191 30.0326 20.166 30.2832C20.7129 30.5339 21.2826 30.6478 21.875 30.625V2.1875C21.875 1.59505 22.0915 1.08236 22.5244 0.649414C22.9574 0.216471 23.4701 0 24.0625 0C24.6549 0 25.1676 0.216471 25.6006 0.649414C26.0335 1.08236 26.25 1.59505 26.25 2.1875V30.625C26.8652 30.625 27.4349 30.5111 27.959 30.2832C28.4831 30.0553 28.9388 29.7477 29.3262 29.3604C29.7135 28.973 30.0326 28.5059 30.2832 27.959C30.5339 27.4121 30.6478 26.8424 30.625 26.25V2.1875C30.625 1.59505 30.8415 1.08236 31.2744 0.649414C31.7074 0.216471 32.2201 0 32.8125 0ZM56.875 0V67.8125C56.875 68.4049 56.6585 68.9176 56.2256 69.3506C55.7926 69.7835 55.2799 70 54.6875 70C54.0951 70 53.5824 69.7835 53.1494 69.3506C52.7165 68.9176 52.5 68.4049 52.5 67.8125V48.125C51.6569 48.125 50.7454 48.1364 49.7656 48.1592C48.7858 48.182 47.8174 48.1706 46.8604 48.125C45.9033 48.0794 44.9691 47.9427 44.0576 47.7148C43.1462 47.487 42.3486 47.1338 41.665 46.6553C40.9814 46.1768 40.4232 45.5273 39.9902 44.707C39.5573 43.8867 39.3522 42.8385 39.375 41.5625V15.3125C39.375 13.1934 39.7738 11.2109 40.5713 9.36523C41.3688 7.51953 42.4626 5.90169 43.8525 4.51172C45.2425 3.12174 46.8604 2.02799 48.7061 1.23047C50.5518 0.432943 52.5456 0.0227865 54.6875 0H56.875ZM52.5 4.58008C51.224 4.83073 50.0618 5.28646 49.0137 5.94727C47.9655 6.60807 47.0426 7.42839 46.2451 8.4082C45.4476 9.38802 44.8324 10.4476 44.3994 11.5869C43.9665 12.7262 43.75 13.9681 43.75 15.3125V41.5625C43.75 42.1549 43.9665 42.6676 44.3994 43.1006C44.8324 43.5335 45.3451 43.75 45.9375 43.75H52.5V4.58008Z" fill="#FFC700"/>
</svg>
