<svg width="71" height="71" viewBox="0 0 71 71" fill="none" xmlns="http://www.w3.org/2000/svg">
<path d="M42.9992 0.5L42.979 4.25316L40.2223 6.80035L43.9755 6.82043L46.5227 9.57711L46.5429 5.82395L49.2996 3.27676L45.5464 3.25668L42.9992 0.5ZM56.9317 8.12498L53.9935 10.4602L50.2815 9.90679L52.6167 12.845L52.0634 16.557L55.0016 14.2218L58.7137 14.7751L56.3784 11.8371L56.9317 8.12498ZM1.41584 8.75573L0.333252 11.2307L1.4951 11.7388L40.4415 28.7779L41.6962 29.3266L41.681 29.3611L41.7738 29.4016L42.8713 26.8926L41.6172 26.3439L34.9061 23.408C37.3051 22.8003 40.0415 22.4783 42.8305 22.4754C44.8805 22.4754 46.9105 22.6479 48.8044 22.983C50.6984 23.3182 52.4193 23.8094 53.8688 24.4286C55.3183 25.0478 56.4681 25.783 57.2525 26.592C58.0369 27.4011 58.4406 28.2682 58.4404 29.1439C58.4404 30.0196 58.0367 30.8867 57.2522 31.6957C56.4677 32.5047 55.3178 33.2398 53.8683 33.8589C52.4188 34.4781 50.6979 34.9693 48.804 35.3044C46.9101 35.6395 44.8802 35.812 42.8302 35.812C40.7803 35.812 38.7504 35.6395 36.8564 35.3044C34.9625 34.9693 33.2417 34.4781 31.7921 33.8589C30.3426 33.2398 29.1927 32.5047 28.4083 31.6957C27.6238 30.8867 27.22 30.0196 27.22 29.1439C27.2233 28.2463 27.6508 27.3583 28.4769 26.533L23.4848 24.3486C21.5752 25.1838 20.0596 26.1301 19.0437 27.081C17.8805 28.1702 17.4003 29.1777 17.4003 30.144C17.4003 31.1104 17.8805 32.118 19.0437 33.207C20.2069 34.2959 22.0249 35.3785 24.3395 36.2953C28.9689 38.128 35.5533 39.3129 42.8302 39.3129C50.1071 39.3129 56.6912 38.1281 61.3206 36.2951C63.6354 35.3785 65.4534 34.2961 66.6164 33.2068C67.7798 32.118 68.2601 31.1104 68.2601 30.144C68.2601 29.1777 67.7798 28.1701 66.6166 27.0811C65.4534 25.9918 63.6354 24.9094 61.3208 23.9928C56.6913 22.1599 50.107 20.975 42.8304 20.975C38.8107 20.975 35.0046 21.338 31.6206 21.9704L2.6705 9.30448L1.41584 8.75573ZM32.5887 9.41143L32.6004 11.9533L30.7504 13.6968L33.2923 13.6852L35.0358 15.5352L35.0243 12.9933L36.8738 11.2498L34.3323 11.2612L32.5888 9.41128L32.5887 9.41143ZM28.2022 40.1542C28.1798 42.4389 28.1352 44.6787 28.0443 46.895C38.32 51.4141 47.3042 51.4204 57.6166 46.9121C57.5253 44.6905 57.4806 42.4449 57.458 40.1543C53.3001 41.36 48.2696 42.051 42.8302 42.051C37.3905 42.051 32.3603 41.3603 28.2025 40.1543L28.2022 40.1542ZM27.8973 49.8097C27.8137 51.1745 27.7057 52.5377 27.5732 53.8986L27.6577 53.9367C38.224 58.6795 47.3981 58.6798 58.0064 53.9357L58.0878 53.8995C57.9556 52.5433 57.8478 51.1847 57.7644 49.8246C47.5751 54.0305 38.0553 54.026 27.8976 49.8099L27.8973 49.8097ZM58.4082 56.7463C47.7583 61.3197 37.8662 61.3205 27.2521 56.7466C26.9042 59.4718 26.4328 62.2158 25.7911 65.0232C25.7911 72.3256 59.8693 72.3256 59.8693 65.0232C59.2276 62.2155 58.7563 59.4718 58.4082 56.7463Z" fill="#FFC700"/>
</svg>
