<svg width="71" height="71" viewBox="0 0 71 71" fill="none" xmlns="http://www.w3.org/2000/svg">
<path d="M0.127609 0.960938V6.15134C1.96648 4.31915 3.87358 2.60794 5.80965 0.960938H0.127609ZM10.0024 0.960938C6.55661 3.80002 3.20003 6.71491 0.127609 10.0366V23.948C5.36468 14.6806 12.9012 5.83597 25.2514 1.02574L25.2013 0.960938H10.0024ZM24.2803 4.29419C11.9346 9.76964 5.0071 19.6365 0.127609 29.6265V39.2657C1.78532 39.3991 3.35816 39.6663 4.86056 40.0764C4.14421 38.9944 3.53398 37.8715 3.18799 36.7684C2.70408 35.2254 2.79861 33.395 2.92345 31.822C3.04859 30.2492 3.2678 28.973 3.2678 28.973L5.90432 29.4248C5.90432 29.4248 5.70487 30.5929 5.59014 32.0343C5.4754 33.4759 5.50914 35.2302 5.74054 35.9678C6.16797 37.3306 7.71748 39.5871 9.16103 41.3459C9.35771 41.5851 9.55667 41.8224 9.75788 42.0578C10.8687 42.6707 11.9432 43.3864 12.9896 44.2098C18.0368 48.1824 22.4576 54.5043 27.7575 63.6644C30.2321 64.6312 33.8474 65.1283 37.3308 65.2108C37.1867 64.998 37.0579 64.7752 36.9455 64.5441C36.266 63.1385 36.3087 61.2641 37.496 59.8786C38.6199 58.5669 40.1655 57.109 42.0453 56.2586C42.8674 55.8866 43.7945 55.6556 44.7432 55.6462C44.7545 55.646 44.7655 55.647 44.7768 55.647L42.0662 46.3425C41.4726 45.0019 41.4391 43.6046 41.7207 42.3461C42.0105 41.0528 42.5916 39.8722 43.2121 38.7358C44.4516 36.4667 45.8162 34.3349 46.027 32.4287C46.4059 28.4724 44.1276 25.3651 42.4274 21.4289L42.2669 21.0573L42.3397 20.6586C43.446 14.5958 47.3087 9.53661 51.3128 4.43523C43.9501 3.69956 34.7975 6.71699 27.8219 8.8216L26.6909 9.16298L26.2126 8.08251C25.6055 6.71223 24.9613 5.45164 24.2803 4.29419ZM42.0662 46.3426C42.0829 46.3798 42.0982 46.4174 42.1157 46.4545L42.0429 46.2624L42.0662 46.3426ZM53.9046 7.92289C53.2489 7.92164 52.5934 7.94692 51.9398 7.99869C48.7073 12.2483 45.9855 16.3407 45.0691 20.7515C45.1892 21.0153 45.3128 21.2776 45.4399 21.5381C49.1353 16.5776 53.4089 11.7302 59.7678 8.51499C57.622 8.11045 55.6761 7.92646 53.9046 7.92289ZM30.7154 27.3579L33.2899 28.0841C32.9659 29.2323 33.385 31.1437 34.5468 32.8555C35.7084 34.5676 37.5246 36.0315 39.5387 36.5508L38.8708 39.141C36.0834 38.4222 33.8143 36.5404 32.333 34.3576C30.852 32.1748 30.0711 29.6427 30.7154 27.3579ZM50.0409 42.2282L49.328 54.8421L52.5704 45.5795L50.0409 42.2281V42.2282ZM60.8001 46.5486L53.1949 56.3798C53.1949 56.3798 64.8387 52.4964 65.4091 52.3436C65.9795 52.1908 60.8001 46.5486 60.8001 46.5486ZM66.5475 58.0037L55.514 60.1814L66.8363 61.1823L66.5475 58.0034V58.0037ZM45.1965 58.0844C46.1173 63.5515 43.2369 63.8686 40.1776 64.3579C41.5039 64.7196 45.7776 65.2801 46.968 63.3246C47.9269 61.7495 46.1244 59.2653 45.1965 58.0842V58.0844ZM53.2808 64.4328L59.1551 68.2708L65.7137 65.9419L53.2808 64.4328ZM0.127609 68.2858V70.9609H70.8707V68.2858H0.127609Z" fill="#FFC700"/>
</svg>
