<svg width="70" height="71" viewBox="0 0 70 71" fill="none" xmlns="http://www.w3.org/2000/svg">
<path d="M60.9656 10.1753C61.2522 10.7966 61.7356 11.2866 62.3744 11.5644L65.0322 12.7172C65.2087 12.7944 65.3588 12.9214 65.4642 13.0827C65.5697 13.2439 65.6258 13.4324 65.6258 13.625C65.6258 13.8176 65.5697 14.0061 65.4642 14.1673C65.3588 14.3286 65.2087 14.4556 65.0322 14.5328L62.3962 15.6856C61.7669 15.9515 61.2634 16.4487 60.9897 17.0747L58.9028 21.815C58.5309 22.5609 57.4087 22.5609 57.0347 21.815L54.9478 17.0747C54.6675 16.4532 54.1662 15.9581 53.5412 15.6856L50.9053 14.5328C50.7288 14.4556 50.5787 14.3286 50.4732 14.1673C50.3678 14.0061 50.3116 13.8176 50.3116 13.625C50.3116 13.4324 50.3678 13.2439 50.4732 13.0827C50.5787 12.9214 50.7288 12.7944 50.9053 12.7172L53.5412 11.5644C54.1706 11.2985 54.674 10.8013 54.9478 10.1753L57.0347 5.435C57.4065 4.68906 58.5287 4.68906 58.9028 5.435L60.9656 10.1753ZM34.9628 11.7984C35.1679 12.2299 35.5245 12.5709 35.9647 12.7566L37.8547 13.5441C38.4234 13.8 38.4234 14.5438 37.8547 14.7997L35.9647 15.5872C35.5194 15.7651 35.1604 16.1085 34.9628 16.5453L33.4841 19.8047C33.2106 20.3144 32.4122 20.3144 32.1409 19.8047L30.6622 16.5453C30.4579 16.1132 30.1011 15.7719 29.6603 15.5872L27.7703 14.7997C27.6447 14.7496 27.5371 14.663 27.4612 14.5511C27.3854 14.4392 27.3448 14.3071 27.3448 14.1719C27.3448 14.0367 27.3854 13.9046 27.4612 13.7927C27.5371 13.6808 27.6447 13.5942 27.7703 13.5441L29.6603 12.7566C30.1055 12.5787 30.4646 12.2353 30.6622 11.7984L32.1409 8.53906C32.4144 8.02937 33.2128 8.02937 33.4841 8.53906L34.9628 11.7984ZM8.74999 57.375L5.11217 60.9341C4.87797 61.167 4.69212 61.444 4.5653 61.749C4.43849 62.054 4.3732 62.3811 4.3732 62.7114C4.3732 63.0417 4.43849 63.3688 4.5653 63.6738C4.69212 63.9788 4.87797 64.2558 5.11217 64.4888L6.00905 65.3856C6.97155 66.3744 8.56842 66.3744 9.53092 65.3638L13.125 61.7653L13.1184 61.7588L43.75 31.125L47.4119 27.4784C48.3634 26.505 48.3634 24.7659 47.4119 23.8144L46.69 23.0903C45.7187 22.1344 43.75 22.375 42.6562 23.4688L8.74999 57.375ZM56.7656 36.1519C56.3144 35.9348 55.957 35.5619 55.7594 35.1019L54.2609 31.5538C53.9809 30.9828 53.1847 30.9828 52.9265 31.5538L51.4281 35.1041C51.2302 35.5633 50.8728 35.9355 50.4219 36.1519L48.5472 37.0094C47.985 37.2938 47.985 38.1031 48.5472 38.3656L50.4197 39.2231C50.8708 39.4402 51.2283 39.8131 51.4259 40.2731L52.9265 43.8213C53.2065 44.3922 54.0028 44.3922 54.2609 43.8213L55.7594 40.2731C55.9569 39.813 56.3143 39.44 56.7656 39.2231L58.6403 38.3656C59.2025 38.0812 59.2025 37.2719 58.6403 37.0094L56.7656 36.1519ZM26.25 31.125C26.8301 31.125 27.3865 30.8945 27.7968 30.4843C28.207 30.0741 28.4375 29.5177 28.4375 28.9375C28.4375 28.3573 28.207 27.8009 27.7968 27.3907C27.3865 26.9805 26.8301 26.75 26.25 26.75C25.6698 26.75 25.1134 26.9805 24.7032 27.3907C24.293 27.8009 24.0625 28.3573 24.0625 28.9375C24.0625 29.5177 24.293 30.0741 24.7032 30.4843C25.1134 30.8945 25.6698 31.125 26.25 31.125ZM65.625 28.9375C65.625 29.5177 65.3945 30.0741 64.9843 30.4843C64.574 30.8945 64.0176 31.125 63.4375 31.125C62.8573 31.125 62.3009 30.8945 61.8907 30.4843C61.4805 30.0741 61.25 29.5177 61.25 28.9375C61.25 28.3573 61.4805 27.8009 61.8907 27.3907C62.3009 26.9805 62.8573 26.75 63.4375 26.75C64.0176 26.75 64.574 26.9805 64.9843 27.3907C65.3945 27.8009 65.625 28.3573 65.625 28.9375ZM41.5625 9.25C42.1426 9.25 42.699 9.01953 43.1093 8.6093C43.5195 8.19906 43.75 7.64266 43.75 7.0625C43.75 6.48234 43.5195 5.92594 43.1093 5.5157C42.699 5.10547 42.1426 4.875 41.5625 4.875C40.9823 4.875 40.4259 5.10547 40.0157 5.5157C39.6055 5.92594 39.375 6.48234 39.375 7.0625C39.375 7.64266 39.6055 8.19906 40.0157 8.6093C40.4259 9.01953 40.9823 9.25 41.5625 9.25ZM43.75 46.4375C43.75 47.0177 43.5195 47.5741 43.1093 47.9843C42.699 48.3945 42.1426 48.625 41.5625 48.625C40.9823 48.625 40.4259 48.3945 40.0157 47.9843C39.6055 47.5741 39.375 47.0177 39.375 46.4375C39.375 45.8573 39.6055 45.3009 40.0157 44.8907C40.4259 44.4805 40.9823 44.25 41.5625 44.25C42.1426 44.25 42.699 44.4805 43.1093 44.8907C43.5195 45.3009 43.75 45.8573 43.75 46.4375Z" fill="#FFC700"/>
</svg>
